<svg viewBox="0 0 1276.1666259765625 400" xmlns="http://www.w3.org/2000/svg"><g><g><g><g><g><line x1="51.53200149536133" y1="349.70435254628774" x2="46.53200149536133" y2="349.70435254628774" style="visibility: inherit;" fill="rgb(0, 0, 0)" stroke="rgb(204, 204, 204)" stroke-width="1px"></line><line x1="51.53200149536133" y1="302.0389822515344" x2="46.53200149536133" y2="302.0389822515344" style="visibility: inherit;" fill="rgb(0, 0, 0)" stroke="rgb(204, 204, 204)" stroke-width="1px"></line><line x1="51.53200149536133" y1="254.373611956781" x2="46.53200149536133" y2="254.373611956781" style="visibility: inherit;" fill="rgb(0, 0, 0)" stroke="rgb(204, 204, 204)" stroke-width="1px"></line><line x1="51.53200149536133" y1="206.70824166202763" x2="46.53200149536133" y2="206.70824166202763" style="visibility: inherit;" fill="rgb(0, 0, 0)" stroke="rgb(204, 204, 204)" stroke-width="1px"></line><line x1="51.53200149536133" y1="159.04287136727427" x2="46.53200149536133" y2="159.04287136727427" style="visibility: inherit;" fill="rgb(0, 0, 0)" stroke="rgb(204, 204, 204)" stroke-width="1px"></line><line x1="51.53200149536133" y1="111.37750107252084" x2="46.53200149536133" y2="111.37750107252084" style="visibility: inherit;" fill="rgb(0, 0, 0)" stroke="rgb(204, 204, 204)" stroke-width="1px"></line><line x1="51.53200149536133" y1="63.71213077776748" x2="46.53200149536133" y2="63.71213077776748" style="visibility: inherit;" fill="rgb(0, 0, 0)" stroke="rgb(204, 204, 204)" stroke-width="1px"></line><line x1="51.53200149536133" y1="16.046760483014108" x2="46.53200149536133" y2="16.046760483014108" style="visibility: inherit;" fill="rgb(0, 0, 0)" stroke="rgb(204, 204, 204)" stroke-width="1px"></line></g><g transform="translate(41.53200149536133, 0)"><text style="text-anchor: end; visibility: inherit; font-family: Roboto, sans-serif; font-size: 12px; font-weight: 200;" x="0" y="349.70435254628774" dx="0em" dy="0.3em" fill="rgb(33, 33, 33)" stroke="none" stroke-width="1px">0.15</text><text style="text-anchor: end; visibility: inherit; font-family: Roboto, sans-serif; font-size: 12px; font-weight: 200;" x="0" y="302.0389822515344" dx="0em" dy="0.3em" fill="rgb(33, 33, 33)" stroke="none" stroke-width="1px">0.2</text><text style="text-anchor: end; visibility: inherit; font-family: Roboto, sans-serif; font-size: 12px; font-weight: 200;" x="0" y="254.373611956781" dx="0em" dy="0.3em" fill="rgb(33, 33, 33)" stroke="none" stroke-width="1px">0.25</text><text style="text-anchor: end; visibility: inherit; font-family: Roboto, sans-serif; font-size: 12px; font-weight: 200;" x="0" y="206.70824166202763" dx="0em" dy="0.3em" fill="rgb(33, 33, 33)" stroke="none" stroke-width="1px">0.3</text><text style="text-anchor: end; visibility: inherit; font-family: Roboto, sans-serif; font-size: 12px; font-weight: 200;" x="0" y="159.04287136727427" dx="0em" dy="0.3em" fill="rgb(33, 33, 33)" stroke="none" stroke-width="1px">0.35</text><text style="text-anchor: end; visibility: inherit; font-family: Roboto, sans-serif; font-size: 12px; font-weight: 200;" x="0" y="111.37750107252084" dx="0em" dy="0.3em" fill="rgb(33, 33, 33)" stroke="none" stroke-width="1px">0.4</text><text style="text-anchor: end; visibility: inherit; font-family: Roboto, sans-serif; font-size: 12px; font-weight: 200;" x="0" y="63.71213077776748" dx="0em" dy="0.3em" fill="rgb(33, 33, 33)" stroke="none" stroke-width="1px">0.45</text><text style="text-anchor: end; visibility: inherit; font-family: Roboto, sans-serif; font-size: 12px; font-weight: 200;" x="0" y="16.046760483014108" dx="0em" dy="0.3em" fill="rgb(33, 33, 33)" stroke="none" stroke-width="1px">0.5</text></g><line x1="51.53200149536133" y1="0" x2="51.53200149536133" y2="376.86499977111816" fill="rgb(0, 0, 0)" stroke="rgb(204, 204, 204)" stroke-width="1px"></line></g></g><g transform="translate(51, 0)" clip-path="url(#clip_0)"><clipPath id="clip_0"><rect width="1224" height="376"></rect></clipPath><g><g><g><line x1="58.460813390877675" y1="0" x2="58.460813390877675" y2="376.86499977111816" fill="rgb(0, 0, 0)" stroke="rgb(66, 66, 66)" stroke-width="1px" opacity="0.25"></line><line x1="172.84152054627182" y1="0" x2="172.84152054627182" y2="376.86499977111816" fill="rgb(0, 0, 0)" stroke="rgb(66, 66, 66)" stroke-width="1px" opacity="0.25"></line><line x1="287.22222770166593" y1="0" x2="287.22222770166593" y2="376.86499977111816" fill="rgb(0, 0, 0)" stroke="rgb(66, 66, 66)" stroke-width="1px" opacity="0.25"></line><line x1="401.60293485706006" y1="0" x2="401.60293485706006" y2="376.86499977111816" fill="rgb(0, 0, 0)" stroke="rgb(66, 66, 66)" stroke-width="1px" opacity="0.25"></line><line x1="515.9836420124542" y1="0" x2="515.9836420124542" y2="376.86499977111816" fill="rgb(0, 0, 0)" stroke="rgb(66, 66, 66)" stroke-width="1px" opacity="0.25"></line><line x1="630.3643491678484" y1="0" x2="630.3643491678484" y2="376.86499977111816" fill="rgb(0, 0, 0)" stroke="rgb(66, 66, 66)" stroke-width="1px" opacity="0.25"></line><line x1="744.7450563232425" y1="0" x2="744.7450563232425" y2="376.86499977111816" fill="rgb(0, 0, 0)" stroke="rgb(66, 66, 66)" stroke-width="1px" opacity="0.25"></line><line x1="859.1257634786366" y1="0" x2="859.1257634786366" y2="376.86499977111816" fill="rgb(0, 0, 0)" stroke="rgb(66, 66, 66)" stroke-width="1px" opacity="0.25"></line><line x1="973.5064706340307" y1="0" x2="973.5064706340307" y2="376.86499977111816" fill="rgb(0, 0, 0)" stroke="rgb(66, 66, 66)" stroke-width="1px" opacity="0.25"></line><line x1="1087.8871777894249" y1="0" x2="1087.8871777894249" y2="376.86499977111816" fill="rgb(0, 0, 0)" stroke="rgb(66, 66, 66)" stroke-width="1px" opacity="0.25"></line><line x1="1202.2678849448191" y1="0" x2="1202.2678849448191" y2="376.86499977111816" fill="rgb(0, 0, 0)" stroke="rgb(66, 66, 66)" stroke-width="1px" opacity="0.25"></line></g><g><line x1="0" y1="349.70435254628774" x2="1224.6379985046387" y2="349.70435254628774" fill="rgb(0, 0, 0)" stroke="rgb(66, 66, 66)" stroke-width="1px" opacity="0.25"></line><line x1="0" y1="302.0389822515344" x2="1224.6379985046387" y2="302.0389822515344" fill="rgb(0, 0, 0)" stroke="rgb(66, 66, 66)" stroke-width="1px" opacity="0.25"></line><line x1="0" y1="254.373611956781" x2="1224.6379985046387" y2="254.373611956781" fill="rgb(0, 0, 0)" stroke="rgb(66, 66, 66)" stroke-width="1px" opacity="0.25"></line><line x1="0" y1="206.70824166202763" x2="1224.6379985046387" y2="206.70824166202763" fill="rgb(0, 0, 0)" stroke="rgb(66, 66, 66)" stroke-width="1px" opacity="0.25"></line><line x1="0" y1="159.04287136727427" x2="1224.6379985046387" y2="159.04287136727427" fill="rgb(0, 0, 0)" stroke="rgb(66, 66, 66)" stroke-width="1px" opacity="0.25"></line><line x1="0" y1="111.37750107252084" x2="1224.6379985046387" y2="111.37750107252084" fill="rgb(0, 0, 0)" stroke="rgb(66, 66, 66)" stroke-width="1px" opacity="0.25"></line><line x1="0" y1="63.71213077776748" x2="1224.6379985046387" y2="63.71213077776748" fill="rgb(0, 0, 0)" stroke="rgb(66, 66, 66)" stroke-width="1px" opacity="0.25"></line><line x1="0" y1="16.046760483014108" x2="1224.6379985046387" y2="16.046760483014108" fill="rgb(0, 0, 0)" stroke="rgb(66, 66, 66)" stroke-width="1px" opacity="0.25"></line></g></g></g><g><g><line x1="0" y1="492.70046343054787" x2="1224.6379985046387" y2="492.70046343054787" fill="rgb(0, 0, 0)" stroke="rgb(153, 153, 153)" stroke-width="1.5px"></line></g></g><g><g><line x1="287.22222770166593" y1="0" x2="287.22222770166593" y2="376.86499977111816" fill="rgb(0, 0, 0)" stroke="rgb(153, 153, 153)" stroke-width="1.5px"></line></g></g><g><g><g><g><g><path style="fill: none;" stroke="rgb(0, 119, 187)" stroke-width="2px" d="M287.22222770166593,81.55709175051422L292.94126305943564,99.94292568664378L298.66029841720535,129.9687392271793L304.37933377497507,116.1167819412327L310.0983691327448,165.0509603851698L315.8174044905145,127.83986306147548L321.5364398482842,178.46843169446944L327.25547520605386,156.21001029879534L332.9745105638236,149.60513023086057L338.6935459215933,163.7059659026979L344.41258127936305,142.6284951766951L350.1316166371327,175.25875283971817L355.8506519949024,165.16440460832754L361.56968735267213,173.38267574680611L367.28872271044185,186.1913041554621L373.0077580682115,163.26451928626292L378.72679342598127,168.66540754628926L384.4458287837509,165.8273416238954L390.1648641415207,170.51614222821792L395.88389949929035,160.25797747022384L401.60293485706006,157.43394647050465L407.32197021482983,181.15938662575115L413.0410055725995,187.340747276052L418.76004093036926,204.8615299457887L424.4790762881389,196.18737951735548L430.1981116459086,177.35134844620023L435.91714700367834,194.06231039545406L441.63618236144805,182.73902569601663L447.3552177192177,194.34116214859537L453.0742530769875,182.95358386613614L458.79328843475713,200.41629491249833L464.5123237925269,193.90803988913137L470.23135915029656,176.59687191472597L475.95039450806627,189.74384423862995L481.669429865836,199.08084645030718L487.3884652236057,197.00626327495007L493.10750058137535,197.85770578028797L498.8265359391451,209.30071348407972L504.5455712969148,207.97162903540905L510.2646066546845,212.71125651557153L515.9836420124542,195.65976302142198L521.7026773702239,204.92627810120482L527.4217127279936,202.96905983590645L533.1407480857633,204.73444855080132L538.859783443533,211.84208568685517L544.5788188013028,206.61615097709316L550.2978541590725,205.7471506130246L556.0168895168422,214.0860254898715L561.7359248746119,210.1487751072348L567.4549602323816,204.71541333178914L573.1739955901513,204.5992416742655L578.8930309479209,217.6271160308574L584.6120663056907,227.739078942528L590.3311016634603,216.70223167306204L596.0501370212302,223.3430797816975L601.7691723789998,219.21255089915041L607.4882077367695,221.72716015221027L613.2072430945393,219.90909786112348L618.9262784523089,225.80754401750875L624.6453138100786,230.76337749272022L630.3643491678484,230.4533591197933L636.083384525618,224.1552585964759L641.8024198833878,219.2373535054156L647.5214552411575,227.15410109258613L653.2404905989273,228.7132559943325L658.9595259566969,229.30394440997802L664.6785613144666,228.02688008968246L670.3975966722362,226.67026560038073L676.116632030006,226.01173225488284L681.8356673877757,228.62734181180588L687.5547027455455,227.0937281964654L693.273738103315,226.7285645099524L698.9927734610849,232.75985944857803L704.7118088188546,239.15574985822374L710.4308441766242,231.8734432796521L716.1498795343939,242.6032837183035L721.8689148921637,231.15459385958272L727.5879502499333,233.90796726275966L733.306985607703,232.71761262668082L739.0260209654729,229.43111103728933L744.7450563232425,234.93899427462895L750.4640916810122,236.31441669674572L756.1831270387819,237.79632270223217L761.9021623965517,234.95311442962756L767.6211977543213,236.51059309566986L773.340233112091,232.95521193503748L779.0592684698606,232.488991123112L784.7783038276305,238.49985871476787L790.4973391854002,231.28985755766783L796.2163745431699,231.96896030400882L801.9354099009395,229.09307964056234L807.6544452587093,232.98348065580933L813.373480616479,227.7903603907623L819.0925159742486,234.06078881957544L824.8115513320183,233.12385829333058L830.5305866897882,235.23673919290923L836.2496220475578,228.47511688125758L841.9686574053275,228.9149156727632L847.6876927630973,226.29967545591055L853.406728120867,228.0129019885571L859.1257634786366,223.33796584226135L864.8447988364063,224.9295090271031L870.5638341941761,226.57517473764372L876.2828695519457,219.91267761872874L882.0019049097154,218.69939548751137L887.7209402674852,223.48198005893718L893.4399756252549,220.66928495830138L899.1590109830246,219.18203772718167L904.8780463407943,213.47613139056594L910.5970816985639,213.23875936840645L916.3161170563337,214.9329506820408L922.0351524141034,216.06716562742096L927.754187771873,213.74018113011712L933.4732231296427,209.9387342502839L939.1922584874126,208.54993035330926L944.9112938451823,203.68199981484963L950.6303292029519,204.94920559634338" fill="none"></path></g><g><path style="fill: none;" stroke="rgb(255, 112, 67)" stroke-width="2px" d="M292.94126305943564,-5.670833406516589L298.66029841720535,45.44875864466802L304.37933377497507,72.09675836610278L310.0983691327448,95.72798839262627L315.8174044905145,114.02026564784963L321.5364398482842,130.57690026923152L327.25547520605386,147.94224759088505L332.9745105638236,169.97761599482075L338.6935459215933,172.4036688633119L344.41258127936305,195.20698050590363L350.1316166371327,197.60306000714425L355.8506519949024,222.88231383850388L361.56968735267213,229.5471690517144L367.28872271044185,242.75852019096408L373.0077580682115,239.49960546375294L378.72679342598127,258.0254192865587L384.4458287837509,261.6902387511239L390.1648641415207,269.8080067742956L395.88389949929035,283.0112892535461L401.60293485706006,277.58487391250117L407.32197021482983,290.1635597165673L413.0410055725995,293.229849391685L418.76004093036926,297.94045526554754L424.4790762881389,308.2135925017796L430.1981116459086,302.2337210652615L435.91714700367834,316.619218493655L441.63618236144805,310.6315625048842L447.3552177192177,317.68959442840776L453.0742530769875,318.69405736598395L458.79328843475713,323.79578016899774L464.5123237925269,329.02922952865345L470.23135915029656,332.6630386326935L475.95039450806627,335.8317491504066L481.669429865836,338.7549337536371L487.3884652236057,332.48182050661995L493.10750058137535,336.14280451660807L498.8265359391451,339.4002418835377L504.5455712969148,345.9817825001016L510.2646066546845,341.8262663412542L515.9836420124542,342.1657750982627L521.7026773702239,342.0040325582084L527.4217127279936,339.67915045822826L533.1407480857633,345.15595230810624L538.859783443533,342.8982901009364L544.5788188013028,347.51141860699175L550.2978541590725,345.71972151477553L556.0168895168422,343.4811513481671L561.7359248746119,345.74443888871673L567.4549602323816,344.1048104677882L573.1739955901513,346.601492522047L578.8930309479209,341.77730037115344L584.6120663056907,340.0169261579834L590.3311016634603,340.56515467092186L596.0501370212302,347.4670977985454L601.7691723789998,335.2005895862792L607.4882077367695,344.6411206607631L613.2072430945393,340.1549457012091L618.9262784523089,334.51111690719284L624.6453138100786,336.3208548413087L630.3643491678484,332.87178679939814L636.083384525618,332.25014484477686L641.8024198833878,335.0264883592543L647.5214552411575,329.47064773431373L653.2404905989273,333.2167646305258L658.9595259566969,330.81331253326476L664.6785613144666,328.61786992256754L670.3975966722362,329.27019551380556L676.116632030006,324.26038156676844L681.8356673877757,323.58345224468786L687.5547027455455,320.6578385202253L693.273738103315,321.69444824931236L698.9927734610849,321.32712534392635L704.7118088188546,313.2432229641315L710.4308441766242,312.3778023576683L716.1498795343939,311.0849274412828L721.8689148921637,307.8720381689966L727.5879502499333,309.68832478666815L733.306985607703,298.9132117786198L739.0260209654729,299.4068063719158L744.7450563232425,300.62714858063254L750.4640916810122,300.93497932391176L756.1831270387819,296.51443325378796L761.9021623965517,293.7940873761359L767.6211977543213,293.2241956475306L773.340233112091,287.41292795314365L779.0592684698606,284.38737932886704L784.7783038276305,282.4912300236682L790.4973391854002,278.3115505009853L796.2163745431699,271.64580034837337L801.9354099009395,271.3185082244623L807.6544452587093,273.0733281311892L813.373480616479,266.43235217406783L819.0925159742486,262.08134147488784L824.8115513320183,265.4540413545525L830.5305866897882,261.21471341050216L836.2496220475578,261.9667608207443L841.9686574053275,254.04870633794008L847.6876927630973,253.28641684343842L853.406728120867,248.18915453204386L859.1257634786366,240.31343210346074L864.8447988364063,236.57247176284682L870.5638341941761,233.85495275727195L876.2828695519457,236.84700507824203L882.0019049097154,228.8803965815694L887.7209402674852,233.2320749339536L893.4399756252549,221.12289138628446L899.1590109830246,221.49632260821915L904.8780463407943,226.2922034221789L910.5970816985639,214.88172605535576L916.3161170563337,214.58781659165254L922.0351524141034,210.33176890672365L927.754187771873,208.2500830377053L933.4732231296427,204.61787914243266L939.1922584874126,204.08744997980935L944.9112938451823,197.0700170532536L950.6303292029519,192.15268017768622" fill="none"></path></g></g></g></g></g></g><g transform="translate(51, 376)" clip-path="url(#clip_1)"><clipPath id="clip_1"><rect width="1224" height="23"></rect></clipPath><g><g><line x1="58.460813390877675" y1="0" x2="58.460813390877675" y2="5" style="visibility: inherit;" fill="rgb(0, 0, 0)" stroke="rgb(204, 204, 204)" stroke-width="1px"></line><line x1="172.84152054627182" y1="0" x2="172.84152054627182" y2="5" style="visibility: inherit;" fill="rgb(0, 0, 0)" stroke="rgb(204, 204, 204)" stroke-width="1px"></line><line x1="287.22222770166593" y1="0" x2="287.22222770166593" y2="5" style="visibility: inherit;" fill="rgb(0, 0, 0)" stroke="rgb(204, 204, 204)" stroke-width="1px"></line><line x1="401.60293485706006" y1="0" x2="401.60293485706006" y2="5" style="visibility: inherit;" fill="rgb(0, 0, 0)" stroke="rgb(204, 204, 204)" stroke-width="1px"></line><line x1="515.9836420124542" y1="0" x2="515.9836420124542" y2="5" style="visibility: inherit;" fill="rgb(0, 0, 0)" stroke="rgb(204, 204, 204)" stroke-width="1px"></line><line x1="630.3643491678484" y1="0" x2="630.3643491678484" y2="5" style="visibility: inherit;" fill="rgb(0, 0, 0)" stroke="rgb(204, 204, 204)" stroke-width="1px"></line><line x1="744.7450563232425" y1="0" x2="744.7450563232425" y2="5" style="visibility: inherit;" fill="rgb(0, 0, 0)" stroke="rgb(204, 204, 204)" stroke-width="1px"></line><line x1="859.1257634786366" y1="0" x2="859.1257634786366" y2="5" style="visibility: inherit;" fill="rgb(0, 0, 0)" stroke="rgb(204, 204, 204)" stroke-width="1px"></line><line x1="973.5064706340307" y1="0" x2="973.5064706340307" y2="5" style="visibility: inherit;" fill="rgb(0, 0, 0)" stroke="rgb(204, 204, 204)" stroke-width="1px"></line><line x1="1087.8871777894249" y1="0" x2="1087.8871777894249" y2="5" style="visibility: inherit;" fill="rgb(0, 0, 0)" stroke="rgb(204, 204, 204)" stroke-width="1px"></line><line x1="1202.2678849448191" y1="0" x2="1202.2678849448191" y2="5" style="visibility: inherit;" fill="rgb(0, 0, 0)" stroke="rgb(204, 204, 204)" stroke-width="1px"></line></g><g transform="translate(0, 8)"><text style="text-anchor: middle; visibility: inherit; font-family: Roboto, sans-serif; font-size: 12px; font-weight: 200;" x="58.460813390877675" y="0" dx="0em" dy="0.95em" fill="rgb(33, 33, 33)" stroke="none" stroke-width="1px">-40</text><text style="text-anchor: middle; visibility: inherit; font-family: Roboto, sans-serif; font-size: 12px; font-weight: 200;" x="172.84152054627182" y="0" dx="0em" dy="0.95em" fill="rgb(33, 33, 33)" stroke="none" stroke-width="1px">-20</text><text style="text-anchor: middle; visibility: inherit; font-family: Roboto, sans-serif; font-size: 12px; font-weight: 200;" x="287.22222770166593" y="0" dx="0em" dy="0.95em" fill="rgb(33, 33, 33)" stroke="none" stroke-width="1px">0</text><text style="text-anchor: middle; visibility: inherit; font-family: Roboto, sans-serif; font-size: 12px; font-weight: 200;" x="401.60293485706006" y="0" dx="0em" dy="0.95em" fill="rgb(33, 33, 33)" stroke="none" stroke-width="1px">20</text><text style="text-anchor: middle; visibility: inherit; font-family: Roboto, sans-serif; font-size: 12px; font-weight: 200;" x="515.9836420124542" y="0" dx="0em" dy="0.95em" fill="rgb(33, 33, 33)" stroke="none" stroke-width="1px">40</text><text style="text-anchor: middle; visibility: inherit; font-family: Roboto, sans-serif; font-size: 12px; font-weight: 200;" x="630.3643491678484" y="0" dx="0em" dy="0.95em" fill="rgb(33, 33, 33)" stroke="none" stroke-width="1px">60</text><text style="text-anchor: middle; visibility: inherit; font-family: Roboto, sans-serif; font-size: 12px; font-weight: 200;" x="744.7450563232425" y="0" dx="0em" dy="0.95em" fill="rgb(33, 33, 33)" stroke="none" stroke-width="1px">80</text><text style="text-anchor: middle; visibility: inherit; font-family: Roboto, sans-serif; font-size: 12px; font-weight: 200;" x="859.1257634786366" y="0" dx="0em" dy="0.95em" fill="rgb(33, 33, 33)" stroke="none" stroke-width="1px">100</text><text style="text-anchor: middle; visibility: inherit; font-family: Roboto, sans-serif; font-size: 12px; font-weight: 200;" x="973.5064706340307" y="0" dx="0em" dy="0.95em" fill="rgb(33, 33, 33)" stroke="none" stroke-width="1px">120</text><text style="text-anchor: middle; visibility: inherit; font-family: Roboto, sans-serif; font-size: 12px; font-weight: 200;" x="1087.8871777894249" y="0" dx="0em" dy="0.95em" fill="rgb(33, 33, 33)" stroke="none" stroke-width="1px">140</text><text style="text-anchor: middle; visibility: inherit; font-family: Roboto, sans-serif; font-size: 12px; font-weight: 200;" x="1202.2678849448191" y="0" dx="0em" dy="0.95em" fill="rgb(33, 33, 33)" stroke="none" stroke-width="1px">160</text></g><line x1="0" y1="0" x2="1224.6379985046387" y2="0" fill="rgb(0, 0, 0)" stroke="rgb(204, 204, 204)" stroke-width="1px"></line></g></g></g></g></svg>