<svg viewBox="0 0 1276.1666259765625 400" xmlns="http://www.w3.org/2000/svg"><g><g><g><g><g><line x1="51.53200149536133" y1="368.18310951693445" x2="46.53200149536133" y2="368.18310951693445" style="visibility: inherit;" fill="rgb(0, 0, 0)" stroke="rgb(204, 204, 204)" stroke-width="1px"></line><line x1="51.53200149536133" y1="335.49828417196056" x2="46.53200149536133" y2="335.49828417196056" style="visibility: inherit;" fill="rgb(0, 0, 0)" stroke="rgb(204, 204, 204)" stroke-width="1px"></line><line x1="51.53200149536133" y1="302.81345882698673" x2="46.53200149536133" y2="302.81345882698673" style="visibility: inherit;" fill="rgb(0, 0, 0)" stroke="rgb(204, 204, 204)" stroke-width="1px"></line><line x1="51.53200149536133" y1="270.1286334820129" x2="46.53200149536133" y2="270.1286334820129" style="visibility: inherit;" fill="rgb(0, 0, 0)" stroke="rgb(204, 204, 204)" stroke-width="1px"></line><line x1="51.53200149536133" y1="237.4438081370391" x2="46.53200149536133" y2="237.4438081370391" style="visibility: inherit;" fill="rgb(0, 0, 0)" stroke="rgb(204, 204, 204)" stroke-width="1px"></line><line x1="51.53200149536133" y1="204.75898279206527" x2="46.53200149536133" y2="204.75898279206527" style="visibility: inherit;" fill="rgb(0, 0, 0)" stroke="rgb(204, 204, 204)" stroke-width="1px"></line><line x1="51.53200149536133" y1="172.0741574470914" x2="46.53200149536133" y2="172.0741574470914" style="visibility: inherit;" fill="rgb(0, 0, 0)" stroke="rgb(204, 204, 204)" stroke-width="1px"></line><line x1="51.53200149536133" y1="139.3893321021176" x2="46.53200149536133" y2="139.3893321021176" style="visibility: inherit;" fill="rgb(0, 0, 0)" stroke="rgb(204, 204, 204)" stroke-width="1px"></line><line x1="51.53200149536133" y1="106.70450675714375" x2="46.53200149536133" y2="106.70450675714375" style="visibility: inherit;" fill="rgb(0, 0, 0)" stroke="rgb(204, 204, 204)" stroke-width="1px"></line><line x1="51.53200149536133" y1="74.0196814121699" x2="46.53200149536133" y2="74.0196814121699" style="visibility: inherit;" fill="rgb(0, 0, 0)" stroke="rgb(204, 204, 204)" stroke-width="1px"></line><line x1="51.53200149536133" y1="41.334856067196434" x2="46.53200149536133" y2="41.334856067196434" style="visibility: inherit;" fill="rgb(0, 0, 0)" stroke="rgb(204, 204, 204)" stroke-width="1px"></line><line x1="51.53200149536133" y1="8.650030722222622" x2="46.53200149536133" y2="8.650030722222622" style="visibility: inherit;" fill="rgb(0, 0, 0)" stroke="rgb(204, 204, 204)" stroke-width="1px"></line></g><g transform="translate(41.53200149536133, 0)"><text style="text-anchor: end; visibility: inherit; font-family: Roboto, sans-serif; font-size: 12px; font-weight: 200;" x="0" y="368.18310951693445" dx="0em" dy="0.3em" fill="rgb(33, 33, 33)" stroke="none" stroke-width="1px">0.84</text><text style="text-anchor: end; visibility: inherit; font-family: Roboto, sans-serif; font-size: 12px; font-weight: 200;" x="0" y="335.49828417196056" dx="0em" dy="0.3em" fill="rgb(33, 33, 33)" stroke="none" stroke-width="1px">0.85</text><text style="text-anchor: end; visibility: inherit; font-family: Roboto, sans-serif; font-size: 12px; font-weight: 200;" x="0" y="302.81345882698673" dx="0em" dy="0.3em" fill="rgb(33, 33, 33)" stroke="none" stroke-width="1px">0.86</text><text style="text-anchor: end; visibility: inherit; font-family: Roboto, sans-serif; font-size: 12px; font-weight: 200;" x="0" y="270.1286334820129" dx="0em" dy="0.3em" fill="rgb(33, 33, 33)" stroke="none" stroke-width="1px">0.87</text><text style="text-anchor: end; visibility: inherit; font-family: Roboto, sans-serif; font-size: 12px; font-weight: 200;" x="0" y="237.4438081370391" dx="0em" dy="0.3em" fill="rgb(33, 33, 33)" stroke="none" stroke-width="1px">0.88</text><text style="text-anchor: end; visibility: inherit; font-family: Roboto, sans-serif; font-size: 12px; font-weight: 200;" x="0" y="204.75898279206527" dx="0em" dy="0.3em" fill="rgb(33, 33, 33)" stroke="none" stroke-width="1px">0.89</text><text style="text-anchor: end; visibility: inherit; font-family: Roboto, sans-serif; font-size: 12px; font-weight: 200;" x="0" y="172.0741574470914" dx="0em" dy="0.3em" fill="rgb(33, 33, 33)" stroke="none" stroke-width="1px">0.9</text><text style="text-anchor: end; visibility: inherit; font-family: Roboto, sans-serif; font-size: 12px; font-weight: 200;" x="0" y="139.3893321021176" dx="0em" dy="0.3em" fill="rgb(33, 33, 33)" stroke="none" stroke-width="1px">0.91</text><text style="text-anchor: end; visibility: inherit; font-family: Roboto, sans-serif; font-size: 12px; font-weight: 200;" x="0" y="106.70450675714375" dx="0em" dy="0.3em" fill="rgb(33, 33, 33)" stroke="none" stroke-width="1px">0.92</text><text style="text-anchor: end; visibility: inherit; font-family: Roboto, sans-serif; font-size: 12px; font-weight: 200;" x="0" y="74.0196814121699" dx="0em" dy="0.3em" fill="rgb(33, 33, 33)" stroke="none" stroke-width="1px">0.93</text><text style="text-anchor: end; visibility: inherit; font-family: Roboto, sans-serif; font-size: 12px; font-weight: 200;" x="0" y="41.334856067196434" dx="0em" dy="0.3em" fill="rgb(33, 33, 33)" stroke="none" stroke-width="1px">0.94</text><text style="text-anchor: end; visibility: inherit; font-family: Roboto, sans-serif; font-size: 12px; font-weight: 200;" x="0" y="8.650030722222622" dx="0em" dy="0.3em" fill="rgb(33, 33, 33)" stroke="none" stroke-width="1px">0.95</text></g><line x1="51.53200149536133" y1="0" x2="51.53200149536133" y2="376.86499977111816" fill="rgb(0, 0, 0)" stroke="rgb(204, 204, 204)" stroke-width="1px"></line></g></g><g transform="translate(51, 0)" clip-path="url(#clip_0)"><clipPath id="clip_0"><rect width="1224" height="376"></rect></clipPath><g><g><g><line x1="98.47082939718982" y1="0" x2="98.47082939718982" y2="376.86499977111816" fill="rgb(0, 0, 0)" stroke="rgb(66, 66, 66)" stroke-width="1px" opacity="0.25"></line><line x1="212.85153655258395" y1="0" x2="212.85153655258395" y2="376.86499977111816" fill="rgb(0, 0, 0)" stroke="rgb(66, 66, 66)" stroke-width="1px" opacity="0.25"></line><line x1="327.2322437079781" y1="0" x2="327.2322437079781" y2="376.86499977111816" fill="rgb(0, 0, 0)" stroke="rgb(66, 66, 66)" stroke-width="1px" opacity="0.25"></line><line x1="441.61295086337225" y1="0" x2="441.61295086337225" y2="376.86499977111816" fill="rgb(0, 0, 0)" stroke="rgb(66, 66, 66)" stroke-width="1px" opacity="0.25"></line><line x1="555.9936580187664" y1="0" x2="555.9936580187664" y2="376.86499977111816" fill="rgb(0, 0, 0)" stroke="rgb(66, 66, 66)" stroke-width="1px" opacity="0.25"></line><line x1="670.3743651741604" y1="0" x2="670.3743651741604" y2="376.86499977111816" fill="rgb(0, 0, 0)" stroke="rgb(66, 66, 66)" stroke-width="1px" opacity="0.25"></line><line x1="784.7550723295545" y1="0" x2="784.7550723295545" y2="376.86499977111816" fill="rgb(0, 0, 0)" stroke="rgb(66, 66, 66)" stroke-width="1px" opacity="0.25"></line><line x1="899.1357794849487" y1="0" x2="899.1357794849487" y2="376.86499977111816" fill="rgb(0, 0, 0)" stroke="rgb(66, 66, 66)" stroke-width="1px" opacity="0.25"></line><line x1="1013.5164866403429" y1="0" x2="1013.5164866403429" y2="376.86499977111816" fill="rgb(0, 0, 0)" stroke="rgb(66, 66, 66)" stroke-width="1px" opacity="0.25"></line><line x1="1127.897193795737" y1="0" x2="1127.897193795737" y2="376.86499977111816" fill="rgb(0, 0, 0)" stroke="rgb(66, 66, 66)" stroke-width="1px" opacity="0.25"></line></g><g><line x1="0" y1="368.18310951693445" x2="1224.6379985046387" y2="368.18310951693445" fill="rgb(0, 0, 0)" stroke="rgb(66, 66, 66)" stroke-width="1px" opacity="0.25"></line><line x1="0" y1="335.49828417196056" x2="1224.6379985046387" y2="335.49828417196056" fill="rgb(0, 0, 0)" stroke="rgb(66, 66, 66)" stroke-width="1px" opacity="0.25"></line><line x1="0" y1="302.81345882698673" x2="1224.6379985046387" y2="302.81345882698673" fill="rgb(0, 0, 0)" stroke="rgb(66, 66, 66)" stroke-width="1px" opacity="0.25"></line><line x1="0" y1="270.1286334820129" x2="1224.6379985046387" y2="270.1286334820129" fill="rgb(0, 0, 0)" stroke="rgb(66, 66, 66)" stroke-width="1px" opacity="0.25"></line><line x1="0" y1="237.4438081370391" x2="1224.6379985046387" y2="237.4438081370391" fill="rgb(0, 0, 0)" stroke="rgb(66, 66, 66)" stroke-width="1px" opacity="0.25"></line><line x1="0" y1="204.75898279206527" x2="1224.6379985046387" y2="204.75898279206527" fill="rgb(0, 0, 0)" stroke="rgb(66, 66, 66)" stroke-width="1px" opacity="0.25"></line><line x1="0" y1="172.0741574470914" x2="1224.6379985046387" y2="172.0741574470914" fill="rgb(0, 0, 0)" stroke="rgb(66, 66, 66)" stroke-width="1px" opacity="0.25"></line><line x1="0" y1="139.3893321021176" x2="1224.6379985046387" y2="139.3893321021176" fill="rgb(0, 0, 0)" stroke="rgb(66, 66, 66)" stroke-width="1px" opacity="0.25"></line><line x1="0" y1="106.70450675714375" x2="1224.6379985046387" y2="106.70450675714375" fill="rgb(0, 0, 0)" stroke="rgb(66, 66, 66)" stroke-width="1px" opacity="0.25"></line><line x1="0" y1="74.0196814121699" x2="1224.6379985046387" y2="74.0196814121699" fill="rgb(0, 0, 0)" stroke="rgb(66, 66, 66)" stroke-width="1px" opacity="0.25"></line><line x1="0" y1="41.334856067196434" x2="1224.6379985046387" y2="41.334856067196434" fill="rgb(0, 0, 0)" stroke="rgb(66, 66, 66)" stroke-width="1px" opacity="0.25"></line><line x1="0" y1="8.650030722222622" x2="1224.6379985046387" y2="8.650030722222622" fill="rgb(0, 0, 0)" stroke="rgb(66, 66, 66)" stroke-width="1px" opacity="0.25"></line></g></g></g><g><g><line x1="0" y1="3113.708438494734" x2="1224.6379985046387" y2="3113.708438494734" fill="rgb(0, 0, 0)" stroke="rgb(153, 153, 153)" stroke-width="1.5px"></line></g></g><g><g><line x1="212.85153655258395" y1="0" x2="212.85153655258395" y2="376.86499977111816" fill="rgb(0, 0, 0)" stroke="rgb(153, 153, 153)" stroke-width="1.5px"></line></g></g><g><g><g><g><g><path style="fill: none;" stroke="rgb(0, 119, 187)" stroke-width="2px" d="M212.85153655258395,271.341546922549L218.57057191035366,217.07962984593235L224.28960726812338,215.48369110838485L230.00864262589306,239.42277217159807L235.72767798366277,156.4339578191255L241.44671334143248,202.71618120800446L247.1657486992022,170.79740645705346L252.8847840569719,207.5039974206471L258.6038194147416,161.22177403176818L264.32285477251133,177.18116140724365L270.04189013028105,209.0999361581946L275.76092548805076,145.26238665629265L281.4799608458205,180.37303888233873L287.1989962035901,154.83801908157798L292.91803156135984,150.05020286893532L298.63706691912955,167.60552898195834L304.35610227689926,151.64614160648287L310.07513763466903,167.60552898195834L315.7941729924387,177.18116140724365L321.5132083502084,162.8177127693157L327.2322437079781,161.22177403176818L332.9512790657478,146.8583253938402L338.6703144235175,153.2420803440304L344.38934978128725,134.09081549345984L350.1083851390569,140.47457044365L355.8274204968266,151.64614160648287L361.54645585459633,150.05020286893532L367.26549121236604,177.18116140724365L372.98452657013576,170.79740645705346L378.70356192790547,151.64614160648287L384.4225972856751,145.26238665629265L390.1416326434449,143.66644791874512L395.86066800121455,166.0095902444108L401.57970335898426,156.4339578191255L407.298738716754,151.64614160648287L413.0177740745237,146.8583253938402L418.73680943229346,127.70706054326965L424.4558447900631,145.26238665629265L430.1748801478328,127.70706054326965L435.89391550560254,138.87863170610245L441.61295086337225,166.0095902444108L447.3319862211419,142.0705091811976L453.0510215789117,162.8177127693157L458.7700569366813,156.4339578191255L464.4890922944511,138.87863170610245L470.20812765222075,159.6258352942206L475.92716300999047,143.66644791874512L481.6461983677602,140.47457044365L487.3652337255299,148.4542641313878L493.08426908329955,154.83801908157798L498.8033044410693,140.47457044365L504.52233979883897,135.68675423100737L510.24137515660874,121.32330559307945L515.9604105143784,145.26238665629265L521.6794458721481,140.47457044365L527.3984812299178,135.68675423100737L533.1175165876875,129.30299928081718L538.8365519454572,140.47457044365L544.555587303227,134.09081549345984L550.2746226609967,135.68675423100737L555.9936580187664,130.89893801836473L561.7126933765361,137.28269296855493L567.4317287343058,132.49487675591226L573.1507640920755,137.28269296855493L578.8697994498452,126.11112180572206L584.588834807615,127.70706054326965L590.3078701653845,145.26238665629265L596.0269055231544,137.28269296855493L601.745940880924,146.8583253938402L607.4649762386938,129.30299928081718L613.1840115964635,132.49487675591226L618.9030469542331,135.68675423100737L624.6220823120028,121.32330559307945L630.3411176697726,138.87863170610245L636.0601530275422,145.26238665629265L641.779188385312,114.93955064288924L647.4982237430817,140.47457044365L653.2172591008515,130.89893801836473L658.9362944586211,127.70706054326965L664.6553298163908,130.89893801836473L670.3743651741604,135.68675423100737L676.0934005319302,132.49487675591226L681.8124358896999,122.91924433062698L687.5314712474697,137.28269296855493L693.2505066052393,122.91924433062698L698.9695419630091,129.30299928081718L704.6885773207788,122.91924433062698L710.4076126785484,124.51518306817452L716.1266480363181,134.09081549345984L721.8456833940879,122.91924433062698L727.5647187518575,135.68675423100737L733.2837541096272,121.32330559307945L739.002789467397,134.09081549345984L744.7218248251665,124.51518306817452L750.4408601829363,121.32330559307945L756.1598955407061,111.74767316779413L761.8789308984757,135.68675423100737L767.5979662562454,127.70706054326965L773.3170016140151,132.49487675591226L779.0360369717849,129.30299928081718L784.7550723295545,122.91924433062698L790.4741076873242,134.09081549345984L796.1931430450941,124.51518306817452L801.9121784028637,127.70706054326965L807.6312137606334,129.30299928081718L813.3502491184031,130.89893801836473L819.0692844761728,121.32330559307945L824.7883198339425,132.49487675591226L830.5073551917122,135.68675423100737L836.2263905494818,140.47457044365L841.9454259072517,122.91924433062698L847.6644612650214,116.53548938043679L853.383496622791,127.70706054326965L859.1025319805607,119.72736685553187L864.8215673383305,119.72736685553187L870.5406026961002,137.28269296855493L876.2596380538698,137.28269296855493" fill="none"></path></g><g><path style="fill: none;" stroke="rgb(255, 112, 67)" stroke-width="2px" d="M212.85153655258395,541.532104948641L218.57057191035366,321.8879191258128L224.28960726812338,284.51447045975027L230.00864262589306,268.12609662186276L235.72767798366277,254.3357988342601L241.44671334143248,228.55414104012343L247.1657486992022,231.35209906608262L252.8847840569719,214.1643921422383L258.6038194147416,196.57672645030505L264.32285477251133,188.78230348270984L270.04189013028105,177.19051261078397L275.76092548805076,173.39314470645328L281.4799608458205,147.61148691231665L287.1989962035901,148.61070197394767L292.91803156135984,136.01969604039076L298.63706691912955,132.4222101117344L304.35610227689926,116.833364176544L310.07513763466903,115.83395429817254L315.7941729924387,109.63839231923123L321.5132083502084,93.84966440836652L327.2322437079781,98.64624737432823L332.9512790657478,84.45618563537701L338.6703144235175,81.25846365806922L344.38934978128725,69.26710365153518L350.1083851390569,62.072131794222464L355.8274204968266,76.46188069210751L361.54645585459633,61.07291673259141L367.26549121236604,69.46698562720947L372.98452657013576,55.07704191258398L378.70356192790547,59.47405574393751L384.4225972856751,53.478180923930076L390.1416326434449,41.68670289307033L395.86066800121455,45.683757956334865L401.57970335898426,38.08921696441397L407.298738716754,33.49232115738616L413.0177740745237,39.088432026044984L418.73680943229346,36.490355975760075L424.4558447900631,31.493891034124093L430.1748801478328,23.899155225462763L435.89391550560254,28.296169056816296L441.61295086337225,24.69868312815993L447.3319862211419,24.898565103834216L453.0510215789117,29.695148069795913L458.7700569366813,24.898565103834216L464.4890922944511,27.69652312979341L470.20812765222075,20.901315223829247L475.92716300999047,21.9007251022007L481.6461983677602,24.298919176811328L487.3652337255299,19.902100162198234L493.08426908329955,23.69927324978844L498.8033044410693,18.10335719787001L504.52233979883897,24.298919176811328L510.24137515660874,25.098447079508496L515.9604105143784,25.29813423844234L521.6794458721481,12.507246329211188L527.3984812299178,27.296759178444844L533.1175165876875,10.30893423027484L538.8365519454572,22.89994016383171L544.555587303227,31.09412708277549L550.2746226609967,28.695738191424464L555.9936580187664,30.494481155752645L561.7126933765361,32.49310609575511L567.4317287343058,20.901315223829247L573.1507640920755,36.690237951434355L578.8697994498452,26.697308068162396L584.588834807615,32.89287004710371L590.3078701653845,32.29322412008082L596.0269055231544,33.092752022777994L601.745940880924,42.68591795470139L607.4649762386938,36.290474000085794L613.1840115964635,45.88363993200919L618.9030469542331,37.68945301306541L624.6220823120028,38.08921696441397L630.3411176697726,46.68297301796592L636.0601530275422,53.07861178932191L641.779188385312,54.47759080230153L647.4982237430817,57.87519475528361L653.2172591008515,48.68159795796838L658.9362944586211,70.06643673749191L664.6553298163908,63.27122883152776L670.3743651741604,55.47680586393254L676.0934005319302,57.67531277960933L681.8124358896999,68.06781179748945L687.5314712474697,63.27122883152776L693.2505066052393,69.26710365153518L698.9695419630091,73.66392266614832L704.6885773207788,79.26003353480719L710.4076126785484,76.06231155749938L716.1266480363181,79.8594846450896L721.8456833940879,92.25080341971267L727.5647187518575,87.85378958835909L733.2837541096272,89.25296341807915L739.002789467397,95.44852539702042L744.7218248251665,94.04954638404085L750.4408601829363,91.05151156566689L756.1598955407061,95.84828934836902L761.8789308984757,95.04876144567186L767.5979662562454,101.84396935163602L773.3170016140151,99.64546243595927L779.0360369717849,102.84318441326707L784.7550723295545,114.63485726086721L790.4741076873242,118.43222516519789L796.1931430450941,115.2345031878901L801.9121784028637,108.8390592332745L807.6312137606334,124.2280231927906L813.3502491184031,111.6370172592337L819.0692844761728,133.02185603875728L824.7883198339425,116.23371824952112L830.5073551917122,112.0367812105823L836.2263905494818,133.6215019657801L841.9454259072517,123.02892615548527L847.6644612650214,136.61934196741365L853.383496622791,126.62641208414168L859.1025319805607,125.02755109548778L864.8215673383305,130.62346714740622L870.5406026961002,141.01616098202678L876.2596380538698,140.2750781014566" fill="none"></path></g></g></g></g></g></g><g transform="translate(51, 376)" clip-path="url(#clip_1)"><clipPath id="clip_1"><rect width="1224" height="23"></rect></clipPath><g><g><line x1="98.47082939718982" y1="0" x2="98.47082939718982" y2="5" style="visibility: inherit;" fill="rgb(0, 0, 0)" stroke="rgb(204, 204, 204)" stroke-width="1px"></line><line x1="212.85153655258395" y1="0" x2="212.85153655258395" y2="5" style="visibility: inherit;" fill="rgb(0, 0, 0)" stroke="rgb(204, 204, 204)" stroke-width="1px"></line><line x1="327.2322437079781" y1="0" x2="327.2322437079781" y2="5" style="visibility: inherit;" fill="rgb(0, 0, 0)" stroke="rgb(204, 204, 204)" stroke-width="1px"></line><line x1="441.61295086337225" y1="0" x2="441.61295086337225" y2="5" style="visibility: inherit;" fill="rgb(0, 0, 0)" stroke="rgb(204, 204, 204)" stroke-width="1px"></line><line x1="555.9936580187664" y1="0" x2="555.9936580187664" y2="5" style="visibility: inherit;" fill="rgb(0, 0, 0)" stroke="rgb(204, 204, 204)" stroke-width="1px"></line><line x1="670.3743651741604" y1="0" x2="670.3743651741604" y2="5" style="visibility: inherit;" fill="rgb(0, 0, 0)" stroke="rgb(204, 204, 204)" stroke-width="1px"></line><line x1="784.7550723295545" y1="0" x2="784.7550723295545" y2="5" style="visibility: inherit;" fill="rgb(0, 0, 0)" stroke="rgb(204, 204, 204)" stroke-width="1px"></line><line x1="899.1357794849487" y1="0" x2="899.1357794849487" y2="5" style="visibility: inherit;" fill="rgb(0, 0, 0)" stroke="rgb(204, 204, 204)" stroke-width="1px"></line><line x1="1013.5164866403429" y1="0" x2="1013.5164866403429" y2="5" style="visibility: inherit;" fill="rgb(0, 0, 0)" stroke="rgb(204, 204, 204)" stroke-width="1px"></line><line x1="1127.897193795737" y1="0" x2="1127.897193795737" y2="5" style="visibility: inherit;" fill="rgb(0, 0, 0)" stroke="rgb(204, 204, 204)" stroke-width="1px"></line></g><g transform="translate(0, 8)"><text style="text-anchor: middle; visibility: inherit; font-family: Roboto, sans-serif; font-size: 12px; font-weight: 200;" x="98.47082939718982" y="0" dx="0em" dy="0.95em" fill="rgb(33, 33, 33)" stroke="none" stroke-width="1px">-20</text><text style="text-anchor: middle; visibility: inherit; font-family: Roboto, sans-serif; font-size: 12px; font-weight: 200;" x="212.85153655258395" y="0" dx="0em" dy="0.95em" fill="rgb(33, 33, 33)" stroke="none" stroke-width="1px">0</text><text style="text-anchor: middle; visibility: inherit; font-family: Roboto, sans-serif; font-size: 12px; font-weight: 200;" x="327.2322437079781" y="0" dx="0em" dy="0.95em" fill="rgb(33, 33, 33)" stroke="none" stroke-width="1px">20</text><text style="text-anchor: middle; visibility: inherit; font-family: Roboto, sans-serif; font-size: 12px; font-weight: 200;" x="441.61295086337225" y="0" dx="0em" dy="0.95em" fill="rgb(33, 33, 33)" stroke="none" stroke-width="1px">40</text><text style="text-anchor: middle; visibility: inherit; font-family: Roboto, sans-serif; font-size: 12px; font-weight: 200;" x="555.9936580187664" y="0" dx="0em" dy="0.95em" fill="rgb(33, 33, 33)" stroke="none" stroke-width="1px">60</text><text style="text-anchor: middle; visibility: inherit; font-family: Roboto, sans-serif; font-size: 12px; font-weight: 200;" x="670.3743651741604" y="0" dx="0em" dy="0.95em" fill="rgb(33, 33, 33)" stroke="none" stroke-width="1px">80</text><text style="text-anchor: middle; visibility: inherit; font-family: Roboto, sans-serif; font-size: 12px; font-weight: 200;" x="784.7550723295545" y="0" dx="0em" dy="0.95em" fill="rgb(33, 33, 33)" stroke="none" stroke-width="1px">100</text><text style="text-anchor: middle; visibility: inherit; font-family: Roboto, sans-serif; font-size: 12px; font-weight: 200;" x="899.1357794849487" y="0" dx="0em" dy="0.95em" fill="rgb(33, 33, 33)" stroke="none" stroke-width="1px">120</text><text style="text-anchor: middle; visibility: inherit; font-family: Roboto, sans-serif; font-size: 12px; font-weight: 200;" x="1013.5164866403429" y="0" dx="0em" dy="0.95em" fill="rgb(33, 33, 33)" stroke="none" stroke-width="1px">140</text><text style="text-anchor: middle; visibility: inherit; font-family: Roboto, sans-serif; font-size: 12px; font-weight: 200;" x="1127.897193795737" y="0" dx="0em" dy="0.95em" fill="rgb(33, 33, 33)" stroke="none" stroke-width="1px">160</text></g><line x1="0" y1="0" x2="1224.6379985046387" y2="0" fill="rgb(0, 0, 0)" stroke="rgb(204, 204, 204)" stroke-width="1px"></line></g></g></g></g></svg>