<svg viewBox="0 0 1276.1666259765625 400" xmlns="http://www.w3.org/2000/svg"><g><g><g><g><g><line x1="51.41600036621094" y1="362.0545250200671" x2="46.41600036621094" y2="362.0545250200671" style="visibility: inherit;" fill="rgb(0, 0, 0)" stroke="rgb(204, 204, 204)" stroke-width="1px"></line><line x1="51.41600036621094" y1="336.62557413950856" x2="46.41600036621094" y2="336.62557413950856" style="visibility: inherit;" fill="rgb(0, 0, 0)" stroke="rgb(204, 204, 204)" stroke-width="1px"></line><line x1="51.41600036621094" y1="311.19662325894996" x2="46.41600036621094" y2="311.19662325894996" style="visibility: inherit;" fill="rgb(0, 0, 0)" stroke="rgb(204, 204, 204)" stroke-width="1px"></line><line x1="51.41600036621094" y1="285.7676723783913" x2="46.41600036621094" y2="285.7676723783913" style="visibility: inherit;" fill="rgb(0, 0, 0)" stroke="rgb(204, 204, 204)" stroke-width="1px"></line><line x1="51.41600036621094" y1="260.33872149783275" x2="46.41600036621094" y2="260.33872149783275" style="visibility: inherit;" fill="rgb(0, 0, 0)" stroke="rgb(204, 204, 204)" stroke-width="1px"></line><line x1="51.41600036621094" y1="234.90977061727415" x2="46.41600036621094" y2="234.90977061727415" style="visibility: inherit;" fill="rgb(0, 0, 0)" stroke="rgb(204, 204, 204)" stroke-width="1px"></line><line x1="51.41600036621094" y1="209.48081973671552" x2="46.41600036621094" y2="209.48081973671552" style="visibility: inherit;" fill="rgb(0, 0, 0)" stroke="rgb(204, 204, 204)" stroke-width="1px"></line><line x1="51.41600036621094" y1="184.051868856157" x2="46.41600036621094" y2="184.051868856157" style="visibility: inherit;" fill="rgb(0, 0, 0)" stroke="rgb(204, 204, 204)" stroke-width="1px"></line><line x1="51.41600036621094" y1="158.62291797559837" x2="46.41600036621094" y2="158.62291797559837" style="visibility: inherit;" fill="rgb(0, 0, 0)" stroke="rgb(204, 204, 204)" stroke-width="1px"></line><line x1="51.41600036621094" y1="133.19396709503977" x2="46.41600036621094" y2="133.19396709503977" style="visibility: inherit;" fill="rgb(0, 0, 0)" stroke="rgb(204, 204, 204)" stroke-width="1px"></line><line x1="51.41600036621094" y1="107.7650162144812" x2="46.41600036621094" y2="107.7650162144812" style="visibility: inherit;" fill="rgb(0, 0, 0)" stroke="rgb(204, 204, 204)" stroke-width="1px"></line><line x1="51.41600036621094" y1="82.33606533392258" x2="46.41600036621094" y2="82.33606533392258" style="visibility: inherit;" fill="rgb(0, 0, 0)" stroke="rgb(204, 204, 204)" stroke-width="1px"></line><line x1="51.41600036621094" y1="56.90711445336393" x2="46.41600036621094" y2="56.90711445336393" style="visibility: inherit;" fill="rgb(0, 0, 0)" stroke="rgb(204, 204, 204)" stroke-width="1px"></line><line x1="51.41600036621094" y1="31.47816357280548" x2="46.41600036621094" y2="31.47816357280548" style="visibility: inherit;" fill="rgb(0, 0, 0)" stroke="rgb(204, 204, 204)" stroke-width="1px"></line><line x1="51.41600036621094" y1="6.049212692246829" x2="46.41600036621094" y2="6.049212692246829" style="visibility: inherit;" fill="rgb(0, 0, 0)" stroke="rgb(204, 204, 204)" stroke-width="1px"></line></g><g transform="translate(41.41600036621094, 0)"><text style="text-anchor: end; visibility: inherit; font-family: Roboto, sans-serif; font-size: 12px; font-weight: 200;" x="0" y="362.0545250200671" dx="0em" dy="0.3em" fill="rgb(33, 33, 33)" stroke="none" stroke-width="1px">0.16</text><text style="text-anchor: end; visibility: inherit; font-family: Roboto, sans-serif; font-size: 12px; font-weight: 200;" x="0" y="336.62557413950856" dx="0em" dy="0.3em" fill="rgb(33, 33, 33)" stroke="none" stroke-width="1px">0.18</text><text style="text-anchor: end; visibility: inherit; font-family: Roboto, sans-serif; font-size: 12px; font-weight: 200;" x="0" y="311.19662325894996" dx="0em" dy="0.3em" fill="rgb(33, 33, 33)" stroke="none" stroke-width="1px">0.2</text><text style="text-anchor: end; visibility: inherit; font-family: Roboto, sans-serif; font-size: 12px; font-weight: 200;" x="0" y="285.7676723783913" dx="0em" dy="0.3em" fill="rgb(33, 33, 33)" stroke="none" stroke-width="1px">0.22</text><text style="text-anchor: end; visibility: inherit; font-family: Roboto, sans-serif; font-size: 12px; font-weight: 200;" x="0" y="260.33872149783275" dx="0em" dy="0.3em" fill="rgb(33, 33, 33)" stroke="none" stroke-width="1px">0.24</text><text style="text-anchor: end; visibility: inherit; font-family: Roboto, sans-serif; font-size: 12px; font-weight: 200;" x="0" y="234.90977061727415" dx="0em" dy="0.3em" fill="rgb(33, 33, 33)" stroke="none" stroke-width="1px">0.26</text><text style="text-anchor: end; visibility: inherit; font-family: Roboto, sans-serif; font-size: 12px; font-weight: 200;" x="0" y="209.48081973671552" dx="0em" dy="0.3em" fill="rgb(33, 33, 33)" stroke="none" stroke-width="1px">0.28</text><text style="text-anchor: end; visibility: inherit; font-family: Roboto, sans-serif; font-size: 12px; font-weight: 200;" x="0" y="184.051868856157" dx="0em" dy="0.3em" fill="rgb(33, 33, 33)" stroke="none" stroke-width="1px">0.3</text><text style="text-anchor: end; visibility: inherit; font-family: Roboto, sans-serif; font-size: 12px; font-weight: 200;" x="0" y="158.62291797559837" dx="0em" dy="0.3em" fill="rgb(33, 33, 33)" stroke="none" stroke-width="1px">0.32</text><text style="text-anchor: end; visibility: inherit; font-family: Roboto, sans-serif; font-size: 12px; font-weight: 200;" x="0" y="133.19396709503977" dx="0em" dy="0.3em" fill="rgb(33, 33, 33)" stroke="none" stroke-width="1px">0.34</text><text style="text-anchor: end; visibility: inherit; font-family: Roboto, sans-serif; font-size: 12px; font-weight: 200;" x="0" y="107.7650162144812" dx="0em" dy="0.3em" fill="rgb(33, 33, 33)" stroke="none" stroke-width="1px">0.36</text><text style="text-anchor: end; visibility: inherit; font-family: Roboto, sans-serif; font-size: 12px; font-weight: 200;" x="0" y="82.33606533392258" dx="0em" dy="0.3em" fill="rgb(33, 33, 33)" stroke="none" stroke-width="1px">0.38</text><text style="text-anchor: end; visibility: inherit; font-family: Roboto, sans-serif; font-size: 12px; font-weight: 200;" x="0" y="56.90711445336393" dx="0em" dy="0.3em" fill="rgb(33, 33, 33)" stroke="none" stroke-width="1px">0.4</text><text style="text-anchor: end; visibility: inherit; font-family: Roboto, sans-serif; font-size: 12px; font-weight: 200;" x="0" y="31.47816357280548" dx="0em" dy="0.3em" fill="rgb(33, 33, 33)" stroke="none" stroke-width="1px">0.42</text><text style="text-anchor: end; visibility: hidden; font-family: Roboto, sans-serif; font-size: 12px; font-weight: 200;" x="0" y="6.049212692246829" dx="0em" dy="0.3em" fill="rgb(33, 33, 33)" stroke="none" stroke-width="1px">0.44</text></g><line x1="51.41600036621094" y1="0" x2="51.41600036621094" y2="376.9749994277954" fill="rgb(0, 0, 0)" stroke="rgb(204, 204, 204)" stroke-width="1px"></line></g></g><g transform="translate(51, 0)" clip-path="url(#clip_0)"><clipPath id="clip_0"><rect width="1224" height="376"></rect></clipPath><g><g><g><line x1="119.39544905524134" y1="0" x2="119.39544905524134" y2="376.9749994277954" fill="rgb(0, 0, 0)" stroke="rgb(66, 66, 66)" stroke-width="1px" opacity="0.25"></line><line x1="243.3196191383846" y1="0" x2="243.3196191383846" y2="376.9749994277954" fill="rgb(0, 0, 0)" stroke="rgb(66, 66, 66)" stroke-width="1px" opacity="0.25"></line><line x1="367.2437892215279" y1="0" x2="367.2437892215279" y2="376.9749994277954" fill="rgb(0, 0, 0)" stroke="rgb(66, 66, 66)" stroke-width="1px" opacity="0.25"></line><line x1="491.1679593046711" y1="0" x2="491.1679593046711" y2="376.9749994277954" fill="rgb(0, 0, 0)" stroke="rgb(66, 66, 66)" stroke-width="1px" opacity="0.25"></line><line x1="615.0921293878145" y1="0" x2="615.0921293878145" y2="376.9749994277954" fill="rgb(0, 0, 0)" stroke="rgb(66, 66, 66)" stroke-width="1px" opacity="0.25"></line><line x1="739.0162994709577" y1="0" x2="739.0162994709577" y2="376.9749994277954" fill="rgb(0, 0, 0)" stroke="rgb(66, 66, 66)" stroke-width="1px" opacity="0.25"></line><line x1="862.9404695541009" y1="0" x2="862.9404695541009" y2="376.9749994277954" fill="rgb(0, 0, 0)" stroke="rgb(66, 66, 66)" stroke-width="1px" opacity="0.25"></line><line x1="986.8646396372442" y1="0" x2="986.8646396372442" y2="376.9749994277954" fill="rgb(0, 0, 0)" stroke="rgb(66, 66, 66)" stroke-width="1px" opacity="0.25"></line><line x1="1110.7888097203875" y1="0" x2="1110.7888097203875" y2="376.9749994277954" fill="rgb(0, 0, 0)" stroke="rgb(66, 66, 66)" stroke-width="1px" opacity="0.25"></line></g><g><line x1="0" y1="362.0545250200671" x2="1224.7539996337891" y2="362.0545250200671" fill="rgb(0, 0, 0)" stroke="rgb(66, 66, 66)" stroke-width="1px" opacity="0.25"></line><line x1="0" y1="336.62557413950856" x2="1224.7539996337891" y2="336.62557413950856" fill="rgb(0, 0, 0)" stroke="rgb(66, 66, 66)" stroke-width="1px" opacity="0.25"></line><line x1="0" y1="311.19662325894996" x2="1224.7539996337891" y2="311.19662325894996" fill="rgb(0, 0, 0)" stroke="rgb(66, 66, 66)" stroke-width="1px" opacity="0.25"></line><line x1="0" y1="285.7676723783913" x2="1224.7539996337891" y2="285.7676723783913" fill="rgb(0, 0, 0)" stroke="rgb(66, 66, 66)" stroke-width="1px" opacity="0.25"></line><line x1="0" y1="260.33872149783275" x2="1224.7539996337891" y2="260.33872149783275" fill="rgb(0, 0, 0)" stroke="rgb(66, 66, 66)" stroke-width="1px" opacity="0.25"></line><line x1="0" y1="234.90977061727415" x2="1224.7539996337891" y2="234.90977061727415" fill="rgb(0, 0, 0)" stroke="rgb(66, 66, 66)" stroke-width="1px" opacity="0.25"></line><line x1="0" y1="209.48081973671552" x2="1224.7539996337891" y2="209.48081973671552" fill="rgb(0, 0, 0)" stroke="rgb(66, 66, 66)" stroke-width="1px" opacity="0.25"></line><line x1="0" y1="184.051868856157" x2="1224.7539996337891" y2="184.051868856157" fill="rgb(0, 0, 0)" stroke="rgb(66, 66, 66)" stroke-width="1px" opacity="0.25"></line><line x1="0" y1="158.62291797559837" x2="1224.7539996337891" y2="158.62291797559837" fill="rgb(0, 0, 0)" stroke="rgb(66, 66, 66)" stroke-width="1px" opacity="0.25"></line><line x1="0" y1="133.19396709503977" x2="1224.7539996337891" y2="133.19396709503977" fill="rgb(0, 0, 0)" stroke="rgb(66, 66, 66)" stroke-width="1px" opacity="0.25"></line><line x1="0" y1="107.7650162144812" x2="1224.7539996337891" y2="107.7650162144812" fill="rgb(0, 0, 0)" stroke="rgb(66, 66, 66)" stroke-width="1px" opacity="0.25"></line><line x1="0" y1="82.33606533392258" x2="1224.7539996337891" y2="82.33606533392258" fill="rgb(0, 0, 0)" stroke="rgb(66, 66, 66)" stroke-width="1px" opacity="0.25"></line><line x1="0" y1="56.90711445336393" x2="1224.7539996337891" y2="56.90711445336393" fill="rgb(0, 0, 0)" stroke="rgb(66, 66, 66)" stroke-width="1px" opacity="0.25"></line><line x1="0" y1="31.47816357280548" x2="1224.7539996337891" y2="31.47816357280548" fill="rgb(0, 0, 0)" stroke="rgb(66, 66, 66)" stroke-width="1px" opacity="0.25"></line><line x1="0" y1="6.049212692246829" x2="1224.7539996337891" y2="6.049212692246829" fill="rgb(0, 0, 0)" stroke="rgb(66, 66, 66)" stroke-width="1px" opacity="0.25"></line></g></g></g><g><g><line x1="0" y1="565.4861320645358" x2="1224.7539996337891" y2="565.4861320645358" fill="rgb(0, 0, 0)" stroke="rgb(153, 153, 153)" stroke-width="1.5px"></line></g></g><g><g><line x1="243.3196191383846" y1="0" x2="243.3196191383846" y2="376.9749994277954" fill="rgb(0, 0, 0)" stroke="rgb(153, 153, 153)" stroke-width="1.5px"></line></g></g><g><g><g><g><g><path style="fill: none;" stroke="rgb(0, 119, 187)" stroke-width="2px" d="M243.3196191383846,54.329383803217944L249.51582764254178,153.4346663766447L255.71203614669895,154.63755076119241L261.9082446508561,239.1212611499303L268.10445315501323,250.85858220402199L274.30066165917043,286.22656604525037L280.4968701633276,242.67675170185586L286.6930786674847,282.37299737043793L292.8892871716419,241.66048585861856L299.0854956757991,264.8505394278148L305.28170417995625,309.67534680227755L311.47791268411345,283.25328745012354L317.6741211882706,303.64402500757484L323.8703296924277,301.1364970318421L330.0665381965849,304.1522526594175L336.262746700742,301.2182681612122L342.4589552048992,324.4294276243191L348.6551637090564,298.3093113881919L354.85137221321355,333.76728894223487L361.04758071737075,343.82879444140434L367.2437892215279,281.8049191630623L373.4399977256851,348.37825134183396L379.6362062298422,341.0129006404567L385.8324147339993,343.6802574501482L392.0286232381565,348.7711165268707L398.2248317423137,316.26392861277327L404.42104024647085,318.04006347492776L410.61724875062805,299.88063950602503L416.8134572547852,283.85025837582384L423.0096657589424,309.1891155084512L429.20587426309953,322.41481889622816L435.4020827672566,336.6677957792731L441.5982912714138,351.73721457101715L447.794499775571,343.15363318880173L453.99070827972815,321.4016980964282L460.18691678388535,344.2653113136673L466.3831252880425,336.35124526270323L472.5793337921997,294.926741387184L478.77554229635683,331.4927404794457L484.971750800514,323.61776011891027L491.1679593046711,329.47330050992997L497.3641678088283,316.0151859905536L503.56037631298545,306.04193116807687L509.75658481714265,328.2937576525797L515.9527933212999,306.8732457219465L522.1490018254569,309.1567367178827L528.3452103296141,319.9198142561103L534.5414188337713,317.7649858504318L540.7376273379284,360.0021613717344L546.9338358420856,342.54461257860663L553.1300443462428,370.45749830422557L559.3262528503999,342.86156096211744L565.5224613545571,307.8150346630629L571.7186698587143,351.09824026398843L577.9148783628715,356.01210539016057L584.1110868670286,357.5171034051382L590.3072953711858,308.7945072872926L596.5035038753429,323.7044193278396L602.6997123795,338.6534360048601L608.8959208836573,370.5173299137137L615.0921293878145,346.8507454256303L621.2883378919715,343.1223153767422L627.4845463961287,338.90329644372315L633.6807549002858,330.6082822699034L639.8769634044431,371.07512041876123L646.0731719086002,331.40212154715255L652.2693804127574,337.78714705228396L658.4655889169145,335.86054270230335L664.6617974210718,363.70772354454516L670.8580059252289,305.6399529354899L677.054214429386,353.51172007331866L683.2504229335432,341.98468117049634L689.4466314377004,330.50604941214596L695.6428399418576,333.68138757509774L701.8390484460147,349.0213179945402L708.0352569501719,337.5372676673761L714.231465454329,350.765093012171L720.4276739584863,342.447210962274L726.6238824626433,368.5048810347303L732.8200909668004,348.96982264476543L739.0162994709577,356.15956245686294L745.2125079751148,332.49456943654303L751.408716479272,318.1092733765934L757.6049249834291,326.8607546078538L763.8011334875864,331.7658287692373L769.9973419917435,368.9794226189131L776.1935504959007,342.98287248699154L782.3897590000578,324.92494248009893L788.585967504215,351.84160727788213L794.7821760083721,326.64944937016503L800.9783845125293,358.89518186597996L807.1745930166863,375.90863536892346L813.3708015208437,338.5294720337135L819.5670100250007,370.7382597421624L825.7632185291578,311.30889373124404L831.959427033315,346.9726253318485L838.1556355374721,333.4119748179979L844.3518440416294,374.5893843771953L850.5480525457865,323.7616174371001L856.7442610499437,348.4858269842259" fill="none"></path></g><g><path style="fill: none;" stroke="rgb(255, 112, 67)" stroke-width="2px" d="M243.3196191383846,-109.01920846700784L249.51582764254178,15.214327005015214L255.71203614669895,71.58108381956025L261.9082446508561,110.0071487524541L268.10445315501323,154.26545044125984L274.30066165917043,162.6729851751651L280.4968701633276,158.6179253138719L286.6930786674847,188.63812276480317L292.8892871716419,205.43072222347715L299.0854956757991,198.0249785545797L305.28170417995625,238.15838526094808L311.47791268411345,220.23485849588852L317.6741211882706,222.84554768557396L323.8703296924277,242.35929177513543L330.0665381965849,236.7170838485984L336.262746700742,247.02619520729934L342.4589552048992,247.21315477741618L348.6551637090564,248.14753581501458L354.85137221321355,248.02292767834467L361.04758071737075,257.6867556970975L367.2437892215279,248.79730936758108L373.4399977256851,255.31181214289674L379.6362062298422,260.57519390359613L385.8324147339993,264.66735012061383L392.0286232381565,267.21661623304766L398.2248317423137,273.2277794360799L404.42104024647085,271.2626009388802L410.61724875062805,255.78120040289312L416.8134572547852,261.4426385649052L423.0096657589424,282.67391740004524L429.20587426309953,272.83085979745533L435.4020827672566,282.2148547344666L441.5982912714138,282.9120502371752L447.794499775571,267.6534551880723L453.99070827972815,281.04694474862544L460.18691678388535,291.4157929865905L466.3831252880425,298.3185760041005L472.5793337921997,283.58976920582626L478.77554229635683,288.0224616321345L484.971750800514,297.93183039153524L491.1679593046711,289.92962734014714L497.3641678088283,298.21816196664423L503.56037631298545,279.10380050153174L509.75658481714265,297.12364895837015L515.9527933212999,287.0934044331258L522.1490018254569,294.80433099171125L528.3452103296141,299.72386098527954L534.5414188337713,303.7177819599932L540.7376273379284,287.7421927913625L546.9338358420856,313.34026970898566L553.1300443462428,306.06809565594995L559.3262528503999,305.7871826496546L565.5224613545571,317.4228771194226L571.7186698587143,303.1492869396319L577.9148783628715,309.1295870356799L584.1110868670286,311.6844232852859L590.3072953711858,301.30363903909495L596.5035038753429,308.67738283832L602.6997123795,320.05550582899L608.8959208836573,301.60815881721487L615.0921293878145,316.33594252906977L621.2883378919715,313.82081718937104L627.4845463961287,303.5855954054021L633.6807549002858,299.51357883401016L639.8769634044431,307.754312589469L646.0731719086002,314.967678119436L652.2693804127574,318.5423989068367L658.4655889169145,303.9285377623827L664.6617974210718,318.51068322783635L670.8580059252289,317.129099748706L677.054214429386,309.8261762649548L683.2504229335432,305.53091844764816L689.4466314377004,309.1020584325811L695.6428399418576,320.89413355615363L701.8390484460147,309.5641335192834L708.0352569501719,321.911062510959L714.231465454329,329.0129116212151L720.4276739584863,313.47105425626137L726.6238824626433,312.91784869405615L732.8200909668004,325.5749244391582L739.0162994709577,325.5914832823161L745.2125079751148,315.640490062483L751.408716479272,314.9775300627336L757.6049249834291,317.79410592129415L763.8011334875864,325.39603588412757L769.9973419917435,308.6464439471565L776.1935504959007,302.3253802892803L782.3897590000578,311.6143797576489L788.585967504215,316.8571292755577L794.7821760083721,309.40089439726006L800.9783845125293,320.6866175274255L807.1745930166863,313.4407595306212L813.3708015208437,331.67394045194237L819.5670100250007,321.6024503871617L825.7632185291578,335.1051828420493L831.959427033315,339.2431127033112L838.1556355374721,339.5868318481287L844.3518440416294,306.0855639092584L850.5480525457865,301.8702015628863L856.7442610499437,319.78940862973076" fill="none"></path></g></g></g></g></g></g><g transform="translate(51, 376)" clip-path="url(#clip_1)"><clipPath id="clip_1"><rect width="1224" height="23"></rect></clipPath><g><g><line x1="119.39544905524134" y1="0" x2="119.39544905524134" y2="5" style="visibility: inherit;" fill="rgb(0, 0, 0)" stroke="rgb(204, 204, 204)" stroke-width="1px"></line><line x1="243.3196191383846" y1="0" x2="243.3196191383846" y2="5" style="visibility: inherit;" fill="rgb(0, 0, 0)" stroke="rgb(204, 204, 204)" stroke-width="1px"></line><line x1="367.2437892215279" y1="0" x2="367.2437892215279" y2="5" style="visibility: inherit;" fill="rgb(0, 0, 0)" stroke="rgb(204, 204, 204)" stroke-width="1px"></line><line x1="491.1679593046711" y1="0" x2="491.1679593046711" y2="5" style="visibility: inherit;" fill="rgb(0, 0, 0)" stroke="rgb(204, 204, 204)" stroke-width="1px"></line><line x1="615.0921293878145" y1="0" x2="615.0921293878145" y2="5" style="visibility: inherit;" fill="rgb(0, 0, 0)" stroke="rgb(204, 204, 204)" stroke-width="1px"></line><line x1="739.0162994709577" y1="0" x2="739.0162994709577" y2="5" style="visibility: inherit;" fill="rgb(0, 0, 0)" stroke="rgb(204, 204, 204)" stroke-width="1px"></line><line x1="862.9404695541009" y1="0" x2="862.9404695541009" y2="5" style="visibility: inherit;" fill="rgb(0, 0, 0)" stroke="rgb(204, 204, 204)" stroke-width="1px"></line><line x1="986.8646396372442" y1="0" x2="986.8646396372442" y2="5" style="visibility: inherit;" fill="rgb(0, 0, 0)" stroke="rgb(204, 204, 204)" stroke-width="1px"></line><line x1="1110.7888097203875" y1="0" x2="1110.7888097203875" y2="5" style="visibility: inherit;" fill="rgb(0, 0, 0)" stroke="rgb(204, 204, 204)" stroke-width="1px"></line></g><g transform="translate(0, 8)"><text style="text-anchor: middle; visibility: inherit; font-family: Roboto, sans-serif; font-size: 12px; font-weight: 200;" x="119.39544905524134" y="0" dx="0em" dy="0.95em" fill="rgb(33, 33, 33)" stroke="none" stroke-width="1px">-20</text><text style="text-anchor: middle; visibility: inherit; font-family: Roboto, sans-serif; font-size: 12px; font-weight: 200;" x="243.3196191383846" y="0" dx="0em" dy="0.95em" fill="rgb(33, 33, 33)" stroke="none" stroke-width="1px">0</text><text style="text-anchor: middle; visibility: inherit; font-family: Roboto, sans-serif; font-size: 12px; font-weight: 200;" x="367.2437892215279" y="0" dx="0em" dy="0.95em" fill="rgb(33, 33, 33)" stroke="none" stroke-width="1px">20</text><text style="text-anchor: middle; visibility: inherit; font-family: Roboto, sans-serif; font-size: 12px; font-weight: 200;" x="491.1679593046711" y="0" dx="0em" dy="0.95em" fill="rgb(33, 33, 33)" stroke="none" stroke-width="1px">40</text><text style="text-anchor: middle; visibility: inherit; font-family: Roboto, sans-serif; font-size: 12px; font-weight: 200;" x="615.0921293878145" y="0" dx="0em" dy="0.95em" fill="rgb(33, 33, 33)" stroke="none" stroke-width="1px">60</text><text style="text-anchor: middle; visibility: inherit; font-family: Roboto, sans-serif; font-size: 12px; font-weight: 200;" x="739.0162994709577" y="0" dx="0em" dy="0.95em" fill="rgb(33, 33, 33)" stroke="none" stroke-width="1px">80</text><text style="text-anchor: middle; visibility: inherit; font-family: Roboto, sans-serif; font-size: 12px; font-weight: 200;" x="862.9404695541009" y="0" dx="0em" dy="0.95em" fill="rgb(33, 33, 33)" stroke="none" stroke-width="1px">100</text><text style="text-anchor: middle; visibility: inherit; font-family: Roboto, sans-serif; font-size: 12px; font-weight: 200;" x="986.8646396372442" y="0" dx="0em" dy="0.95em" fill="rgb(33, 33, 33)" stroke="none" stroke-width="1px">120</text><text style="text-anchor: middle; visibility: inherit; font-family: Roboto, sans-serif; font-size: 12px; font-weight: 200;" x="1110.7888097203875" y="0" dx="0em" dy="0.95em" fill="rgb(33, 33, 33)" stroke="none" stroke-width="1px">140</text></g><line x1="0" y1="0" x2="1224.7539996337891" y2="0" fill="rgb(0, 0, 0)" stroke="rgb(204, 204, 204)" stroke-width="1px"></line></g></g></g></g></svg>