# Blender v2.78 (sub 0) OBJ File: '14.blend'
# www.blender.org
mtllib bottle2.mtl
g Bottle_of_Champagne_Circle.009
v 0.000000 -0.001588 -1.414294
v -1.000056 -0.001588 -1.000056
v -1.414294 -0.001588 0.000000
v -1.000056 -0.001588 1.000056
v 0.000000 -0.001588 1.414294
v 1.000057 -0.001588 1.000056
v 1.414294 -0.001588 -0.000000
v 1.000057 -0.001588 -1.000056
v 0.000000 0.399292 -1.543325
v -1.091295 0.399292 -1.091295
v -1.543325 0.399292 0.000000
v -1.091295 0.399292 1.091295
v 0.000000 0.399292 1.543325
v 1.091295 0.399292 1.091295
v 1.543325 0.399292 -0.000000
v 1.091295 0.399292 -1.091295
v 0.000000 0.137213 -1.513103
v -1.069925 0.137213 1.069925
v 1.069925 0.137213 1.069925
v 0.000000 0.137213 1.513103
v 1.069925 0.137213 -1.069925
v 1.513103 0.137213 -0.000000
v -1.513103 0.137213 0.000000
v -1.069925 0.137213 -1.069925
v 0.000000 4.192814 -1.549597
v -1.095731 4.192814 -1.095731
v -1.549597 4.192814 0.000000
v -1.095731 4.192814 1.095731
v 0.000000 4.192814 1.549597
v 1.095731 4.192814 1.095731
v 1.549597 4.192814 -0.000000
v 1.095731 4.192814 -1.095731
v 0.000000 5.416824 -1.299485
v -0.918875 5.416824 -0.918875
v -1.299485 5.416824 0.000000
v -0.918875 5.416824 0.918875
v 0.000000 5.416824 1.299485
v 0.918875 5.416824 0.918875
v 1.299486 5.416824 -0.000000
v 0.918875 5.416824 -0.918875
v 0.000000 6.269454 -0.953178
v -0.663728 6.305217 -0.663728
v -0.902500 6.394226 0.000000
v -0.638164 6.394226 0.638164
v 0.000000 6.394226 0.902500
v 0.638164 6.394226 0.638164
v 0.902500 6.394226 -0.000000
v 0.663728 6.305217 -0.663728
v 0.000000 7.428770 -0.587433
v -0.415378 7.428770 -0.415378
v -0.587433 7.428770 0.000000
v -0.415378 7.428770 0.415378
v 0.000000 7.428770 0.587433
v 0.415378 7.428770 0.415378
v 0.587433 7.428770 -0.000000
v 0.415378 7.428770 -0.415378
v 0.000000 8.613285 -0.503958
v -0.356352 8.613285 -0.356352
v -0.503958 8.613285 0.000000
v -0.356352 8.613285 0.356352
v 0.000000 8.613285 0.503958
v 0.356353 8.613285 0.356352
v 0.503958 8.613285 -0.000000
v 0.356353 8.613285 -0.356352
v 0.000000 9.240507 -0.480739
v -0.339934 9.240507 -0.339934
v -0.480739 9.240507 0.000000
v -0.339934 9.240507 0.339934
v 0.000000 9.240507 0.480739
v 0.339934 9.240507 0.339934
v 0.480739 9.240507 -0.000000
v 0.339934 9.240507 -0.339934
v 0.000000 -0.001588 -1.074626
v -0.759876 -0.001588 -0.759876
v -1.074626 -0.001588 0.000000
v -0.759876 -0.001588 0.759876
v 0.000000 -0.001588 1.074626
v 0.759876 -0.001588 0.759875
v 1.074626 -0.001588 -0.000000
v 0.759876 -0.001588 -0.759875
v 0.000000 0.322399 -0.878969
v -0.621525 0.322399 -0.621525
v -0.878969 0.322399 0.000000
v -0.621525 0.322399 0.621525
v 0.000000 0.322399 0.878969
v 0.621525 0.322399 0.621525
v 0.878969 0.322399 -0.000000
v 0.621525 0.322399 -0.621525
v 0.000000 0.603340 -0.515895
v -0.364793 0.603340 -0.364793
v -0.515895 0.603340 0.000000
v -0.364793 0.603340 0.364793
v 0.000000 0.603340 0.515895
v 0.364793 0.603340 0.364793
v 0.515895 0.603340 -0.000000
v 0.364793 0.603340 -0.364793
v 0.000000 0.723696 0.000000
v 1.548277 3.394179 -0.000000
v 1.094797 3.394179 -1.094797
v 0.000000 3.394179 1.548277
v 1.094797 3.394179 1.094797
v -1.548277 3.394179 0.000000
v -1.094797 3.394179 1.094797
v 0.000000 3.394179 -1.548277
v -1.094797 3.394179 -1.094797
v 1.543838 0.709873 -0.000000
v 0.000000 0.709873 1.543838
v -1.543838 0.709873 0.000000
v 0.000000 0.709873 -1.543838
v 1.091659 0.709873 -1.091658
v 1.091659 0.709873 1.091658
v -1.091658 0.709873 1.091658
v -1.091658 0.709873 -1.091658
v 0.000000 9.298519 -0.535591
v -0.378720 9.298519 -0.378720
v -0.535591 9.298519 0.000000
v -0.378720 9.298519 0.378720
v 0.000000 9.298519 0.535591
v 0.378720 9.298519 0.378720
v 0.535591 9.298519 -0.000000
v 0.378720 9.298519 -0.378720
v 0.000000 9.385537 -0.530550
v -0.375156 9.385537 -0.375156
v -0.530550 9.385537 0.000000
v -0.375156 9.385537 0.375156
v 0.000000 9.385537 0.530550
v 0.375156 9.385537 0.375156
v 0.530550 9.385537 -0.000000
v 0.375156 9.385537 -0.375156
v 0.000000 9.429049 -0.470100
v -0.332411 9.429049 -0.332411
v -0.470100 9.429049 0.000000
v -0.332411 9.429049 0.332411
v 0.000000 9.429049 0.470100
v 0.332411 9.429049 0.332411
v 0.470100 9.429049 -0.000000
v 0.332411 9.429049 -0.332411
v 0.000000 9.469685 -0.470100
v -0.332411 9.469685 -0.332411
v -0.470100 9.469685 0.000000
v -0.332411 9.469685 0.332411
v 0.000000 9.469685 0.470100
v 0.332411 9.469685 0.332411
v 0.470100 9.469685 -0.000000
v 0.332411 9.469685 -0.332411
v 0.000000 9.534949 -0.528657
v -0.373817 9.534949 -0.373817
v -0.528657 9.534949 0.000000
v -0.373817 9.534949 0.373817
v 0.000000 9.534949 0.528657
v 0.373817 9.534949 0.373817
v 0.528657 9.534949 -0.000000
v 0.373817 9.534949 -0.373817
v 0.000000 9.883026 -0.528657
v -0.373817 9.883026 -0.373817
v -0.528657 9.883026 0.000000
v -0.373817 9.883026 0.373817
v 0.000000 9.883026 0.528657
v 0.373817 9.883026 0.373817
v 0.528657 9.883026 -0.000000
v 0.373817 9.883026 -0.373817
v 0.000000 9.977297 -0.418780
v -0.296122 9.977297 -0.296122
v -0.418780 9.977297 0.000000
v -0.296122 9.977297 0.296122
v 0.000000 9.977297 0.418780
v 0.296123 9.977297 0.296122
v 0.418780 9.977297 -0.000000
v 0.296123 9.977297 -0.296122
v 0.000000 9.977297 -0.000000
v -0.331909 8.606800 -0.331910
v -0.469391 8.606800 0.000000
v 0.469391 8.606800 -0.000000
v 0.331910 8.606800 -0.331910
v 0.000000 8.606800 0.469391
v 0.331910 8.606800 0.331910
v -0.331909 8.606800 0.331910
v 0.000000 8.606800 -0.469391
v 0.000000 5.559229 -1.241645
v -0.817633 5.769336 -0.817633
v 0.817633 5.769336 -0.817633
v 0.739992 6.039674 0.739991
v 1.100993 5.905525 -0.000000
v -0.739991 6.039674 0.739991
v 0.000000 6.104850 1.020035
v -1.100993 5.905525 0.000000
v 0.000000 6.191718 -1.004054
v -0.474839 6.217303 -0.796977
v 0.474840 6.217303 -0.796977
v 0.000000 5.683612 -1.210427
v -0.584945 5.833928 -0.907083
v 0.584945 5.833928 -0.907083
v -0.474839 6.179139 -0.703013
v 0.000000 6.153552 -0.910090
v 0.474840 6.179139 -0.703013
v -0.584945 5.795762 -0.813119
v 0.000000 5.645449 -1.116462
v 0.584945 5.795762 -0.813119
vn -0.9187 -0.1059 -0.3805
vn 0.9187 -0.1059 -0.3805
vn 0.3805 -0.1059 0.9187
vn -0.9187 -0.1059 0.3805
vn -0.3805 -0.1059 -0.9187
vn 0.3805 -0.1059 -0.9187
vn 0.9187 -0.1059 0.3805
vn -0.3805 -0.1059 0.9187
vn 0.9239 -0.0015 0.3827
vn -0.3827 -0.0015 0.9239
vn -0.9239 -0.0015 -0.3827
vn -0.3197 -0.5495 0.7719
vn 0.9239 -0.0015 -0.3827
vn 0.3827 -0.0015 0.9239
vn -0.9239 -0.0015 0.3827
vn 0.3827 -0.0015 -0.9239
vn 0.3197 -0.5495 -0.7719
vn -0.7719 -0.5495 0.3197
vn 0.7719 -0.5495 -0.3197
vn 0.0000 -1.0000 0.0000
vn 0.7719 -0.5495 0.3197
vn -0.3197 -0.5495 -0.7719
vn 0.3197 -0.5495 0.7719
vn -0.7719 -0.5495 -0.3197
vn 0.9078 0.1855 0.3760
vn -0.3760 0.1855 0.9078
vn -0.9078 0.1855 -0.3760
vn 0.9078 0.1855 -0.3760
vn 0.3760 0.1855 0.9078
vn -0.9078 0.1855 0.3760
vn -0.3760 0.1855 -0.9078
vn 0.3760 0.1855 -0.9078
vn -0.3827 -0.0015 -0.9239
vn 0.8068 -0.4872 -0.3342
vn 0.3342 -0.4872 0.8068
vn -0.3342 -0.4872 0.8068
vn -0.8068 -0.4872 -0.3342
vn 0.3342 -0.4872 -0.8068
vn 0.8068 -0.4872 0.3342
vn -0.8068 -0.4872 0.3342
vn -0.3342 -0.4872 -0.8068
vn -0.5932 -0.7666 0.2457
vn -0.2457 -0.7666 -0.5932
vn 0.5932 -0.7666 -0.2457
vn 0.2457 -0.7666 0.5932
vn -0.2457 -0.7666 0.5932
vn -0.5932 -0.7666 -0.2457
vn 0.2457 -0.7666 -0.5932
vn 0.5932 -0.7666 0.2457
vn 0.0937 -0.9696 -0.2262
vn 0.2262 -0.9696 0.0937
vn -0.2262 -0.9696 0.0937
vn -0.0937 -0.9696 -0.2262
vn 0.2262 -0.9696 -0.0937
vn 0.0937 -0.9696 0.2262
vn -0.0937 -0.9696 0.2262
vn -0.2262 -0.9696 -0.0937
vn -0.8650 0.3513 0.3583
vn 0.3583 0.3513 0.8650
vn 0.8650 0.3513 -0.3583
vn -0.8650 0.3513 -0.3583
vn -0.3583 0.3513 0.8650
vn 0.8650 0.3513 0.3583
vn 0.3583 0.3513 -0.8650
vn -0.3583 0.3513 -0.8650
vn 0.8910 0.2743 -0.3618
vn 0.3684 0.2708 0.8893
vn -0.8893 0.2708 0.3684
vn -0.3698 0.2787 -0.8863
vn 0.3698 0.2787 -0.8863
vn 0.8893 0.2708 0.3684
vn -0.3684 0.2708 0.8893
vn -0.8910 0.2743 -0.3618
vn -0.1839 -0.9800 -0.0762
vn 0.1839 -0.9800 -0.0762
vn 0.0762 -0.9800 0.1838
vn -0.1839 -0.9800 0.0762
vn -0.0762 -0.9800 -0.1839
vn 0.0762 -0.9800 -0.1838
vn 0.1839 -0.9800 0.0762
vn -0.0762 -0.9800 0.1839
vn 0.3825 0.0342 -0.9233
vn 0.9233 0.0342 0.3825
vn -0.3825 0.0342 0.9233
vn -0.9233 0.0342 -0.3825
vn 0.9233 0.0342 -0.3825
vn 0.3825 0.0342 0.9233
vn -0.9233 0.0342 0.3825
vn -0.3825 0.0342 -0.9233
vn 0.2882 -0.6579 -0.6958
vn 0.6958 -0.6579 0.2882
vn -0.2882 -0.6579 0.6958
vn -0.6958 -0.6579 -0.2882
vn 0.6958 -0.6579 -0.2882
vn 0.2882 -0.6579 0.6958
vn -0.6958 -0.6579 0.2882
vn -0.2882 -0.6579 -0.6958
vn -0.9226 0.0534 0.3821
vn -0.3821 0.0534 -0.9226
vn 0.3821 0.0534 -0.9226
vn 0.9226 0.0534 0.3821
vn -0.3821 0.0534 0.9226
vn -0.9226 0.0534 -0.3821
vn 0.9226 0.0534 -0.3821
vn 0.3821 0.0534 0.9226
vn 0.5678 0.7888 -0.2352
vn 0.2352 0.7888 0.5678
vn -0.5678 0.7889 0.2352
vn -0.2352 0.7888 -0.5678
vn 0.2352 0.7888 -0.5678
vn 0.5678 0.7888 0.2352
vn -0.2352 0.7888 0.5678
vn -0.5678 0.7889 -0.2352
vn -0.3827 0.0000 0.9239
vn -0.9239 0.0000 -0.3827
vn 0.9239 0.0000 -0.3827
vn 0.3827 0.0000 0.9239
vn -0.9239 0.0000 0.3827
vn -0.3827 0.0000 -0.9239
vn 0.3827 0.0000 -0.9239
vn 0.9239 0.0000 0.3827
vn 0.2946 -0.6382 -0.7113
vn 0.7113 -0.6382 0.2946
vn -0.2946 -0.6382 0.7113
vn -0.7113 -0.6382 -0.2946
vn 0.7113 -0.6382 -0.2946
vn 0.2946 -0.6382 0.7113
vn -0.7113 -0.6382 0.2946
vn -0.2946 -0.6382 -0.7113
vn 0.6287 0.7328 -0.2604
vn 0.2604 0.7328 0.6287
vn -0.6287 0.7328 0.2604
vn -0.2604 0.7328 -0.6287
vn 0.2604 0.7328 -0.6287
vn 0.6287 0.7328 0.2604
vn -0.2604 0.7328 0.6287
vn -0.6287 0.7328 -0.2604
vn 0.0000 1.0000 0.0000
vn -0.3811 0.0922 0.9199
vn 0.9199 0.0922 0.3811
vn 0.3811 0.0922 -0.9199
vn -0.3811 0.0922 -0.9199
vn -0.9199 0.0922 0.3811
vn 0.3811 0.0922 0.9199
vn 0.9199 0.0922 -0.3811
vn -0.9199 0.0922 -0.3811
vn 0.3583 -0.3513 0.8650
vn -0.3583 -0.3513 0.8650
vn -0.3975 -0.8501 -0.3453
vn 0.9636 0.2478 0.1007
vn -0.9636 0.2478 0.1007
vn 0.2093 0.9060 0.3680
vn 0.3975 -0.8501 -0.3453
vn -0.2093 0.9060 0.3680
usemtl 4CAF50
s off
f 24//1 23//1 11//1 10//1
f 22//2 21//2 16//2 15//2
f 20//3 19//3 14//3 13//3
f 23//4 18//4 12//4 11//4
f 17//5 24//5 10//5 9//5
f 21//6 17//6 9//6 16//6
f 19//7 22//7 15//7 14//7
f 18//8 20//8 13//8 12//8
f 98//9 31//9 30//9 101//9
f 100//10 29//10 28//10 103//10
f 102//11 27//11 26//11 105//11
f 4//12 5//12 20//12 18//12
f 99//13 32//13 31//13 98//13
f 101//14 30//14 29//14 100//14
f 103//15 28//15 27//15 102//15
f 104//16 25//16 32//16 99//16
f 8//17 1//17 17//17 21//17
f 3//18 4//18 18//18 23//18
f 7//19 8//19 21//19 22//19
f 8//20 7//20 79//20 80//20
f 6//21 7//21 22//21 19//21
f 1//22 2//22 24//22 17//22
f 5//23 6//23 19//23 20//23
f 2//24 3//24 23//24 24//24
f 30//25 31//25 39//25 38//25
f 28//26 29//26 37//26 36//26
f 26//27 27//27 35//27 34//27
f 31//28 32//28 40//28 39//28
f 29//29 30//29 38//29 37//29
f 27//30 28//30 36//30 35//30
f 25//31 26//31 34//31 33//31
f 32//32 25//32 33//32 40//32
f 105//33 26//33 25//33 104//33
f 6//20 5//20 77//20 78//20
f 4//20 3//20 75//20 76//20
f 2//20 1//20 73//20 74//20
f 1//20 8//20 80//20 73//20
f 7//20 6//20 78//20 79//20
f 5//20 4//20 76//20 77//20
f 3//20 2//20 74//20 75//20
f 76//34 75//34 83//34 84//34
f 74//35 73//35 81//35 82//35
f 73//36 80//36 88//36 81//36
f 79//37 78//37 86//37 87//37
f 77//38 76//38 84//38 85//38
f 75//39 74//39 82//39 83//39
f 80//40 79//40 87//40 88//40
f 78//41 77//41 85//41 86//41
f 88//42 87//42 95//42 96//42
f 86//43 85//43 93//43 94//43
f 84//44 83//44 91//44 92//44
f 82//45 81//45 89//45 90//45
f 81//46 88//46 96//46 89//46
f 87//47 86//47 94//47 95//47
f 85//48 84//48 92//48 93//48
f 83//49 82//49 90//49 91//49
f 93//50 92//50 97//50
f 91//51 90//51 97//51
f 96//52 95//52 97//52
f 94//53 93//53 97//53
f 92//54 91//54 97//54
f 90//55 89//55 97//55
f 89//56 96//56 97//56
f 95//57 94//57 97//57
f 112//15 103//15 102//15 108//15
f 106//9 98//9 101//9 111//9
f 15//9 106//9 111//9 14//9
f 13//10 107//10 112//10 12//10
f 11//11 108//11 113//11 10//11
f 16//13 110//13 106//13 15//13
f 14//14 111//14 107//14 13//14
f 12//15 112//15 108//15 11//15
f 9//16 109//16 110//16 16//16
f 10//33 113//33 109//33 9//33
f 35//58 36//58 184//58 186//58
f 37//59 38//59 182//59 185//59
f 39//60 40//60 181//60 183//60
f 34//61 35//61 186//61 180//61
f 36//62 37//62 185//62 184//62
f 38//63 39//63 183//63 182//63
f 40//64 33//64 179//64 181//64
f 33//65 34//65 180//65 179//65
usemtl DD9944
f 47//66 48//66 56//66 55//66
f 45//67 46//67 54//67 53//67
f 43//68 44//68 52//68 51//68
f 41//69 42//69 50//69 49//69
f 48//70 41//70 49//70 56//70
f 46//71 47//71 55//71 54//71
f 44//72 45//72 53//72 52//72
f 42//73 43//73 51//73 50//73
f 171//74 172//74 59//74 58//74
f 173//75 174//75 64//75 63//75
f 175//76 176//76 62//76 61//76
f 172//77 177//77 60//77 59//77
f 178//78 171//78 58//78 57//78
f 174//79 178//79 57//79 64//79
f 176//80 173//80 63//80 62//80
f 177//81 175//81 61//81 60//81
f 64//82 57//82 65//82 72//82
f 62//83 63//83 71//83 70//83
f 60//84 61//84 69//84 68//84
f 58//85 59//85 67//85 66//85
f 63//86 64//86 72//86 71//86
f 61//87 62//87 70//87 69//87
f 59//88 60//88 68//88 67//88
f 57//89 58//89 66//89 65//89
f 113//33 105//33 104//33 109//33
f 109//16 104//16 99//16 110//16
f 110//13 99//13 98//13 106//13
f 108//11 102//11 105//11 113//11
f 72//90 65//90 114//90 121//90
f 70//91 71//91 120//91 119//91
f 68//92 69//92 118//92 117//92
f 66//93 67//93 116//93 115//93
f 71//94 72//94 121//94 120//94
f 69//95 70//95 119//95 118//95
f 67//96 68//96 117//96 116//96
f 65//97 66//97 115//97 114//97
f 116//98 117//98 125//98 124//98
f 114//99 115//99 123//99 122//99
f 121//100 114//100 122//100 129//100
f 119//101 120//101 128//101 127//101
f 117//102 118//102 126//102 125//102
f 115//103 116//103 124//103 123//103
f 120//104 121//104 129//104 128//104
f 118//105 119//105 127//105 126//105
f 128//106 129//106 137//106 136//106
f 126//107 127//107 135//107 134//107
f 124//108 125//108 133//108 132//108
f 122//109 123//109 131//109 130//109
f 129//110 122//110 130//110 137//110
f 127//111 128//111 136//111 135//111
f 125//112 126//112 134//112 133//112
f 123//113 124//113 132//113 131//113
f 133//114 134//114 142//114 141//114
f 131//115 132//115 140//115 139//115
f 136//116 137//116 145//116 144//116
f 134//117 135//117 143//117 142//117
f 132//118 133//118 141//118 140//118
f 130//119 131//119 139//119 138//119
f 137//120 130//120 138//120 145//120
f 135//121 136//121 144//121 143//121
f 145//122 138//122 146//122 153//122
f 143//123 144//123 152//123 151//123
f 141//124 142//124 150//124 149//124
f 139//125 140//125 148//125 147//125
f 144//126 145//126 153//126 152//126
f 142//127 143//127 151//127 150//127
f 140//128 141//128 149//128 148//128
f 138//129 139//129 147//129 146//129
f 150//117 151//117 159//117 158//117
f 148//118 149//118 157//118 156//118
f 146//119 147//119 155//119 154//119
f 153//120 146//120 154//120 161//120
f 151//121 152//121 160//121 159//121
f 149//114 150//114 158//114 157//114
f 147//115 148//115 156//115 155//115
f 152//116 153//116 161//116 160//116
f 160//130 161//130 169//130 168//130
f 158//131 159//131 167//131 166//131
f 156//132 157//132 165//132 164//132
f 154//133 155//133 163//133 162//133
f 161//134 154//134 162//134 169//134
f 159//135 160//135 168//135 167//135
f 157//136 158//136 166//136 165//136
f 155//137 156//137 164//137 163//137
f 167//138 168//138 170//138
f 165//138 166//138 170//138
f 163//138 164//138 170//138
f 168//138 169//138 170//138
f 166//138 167//138 170//138
f 164//138 165//138 170//138
f 162//138 163//138 170//138
f 169//138 162//138 170//138
f 52//139 53//139 175//139 177//139
f 54//140 55//140 173//140 176//140
f 56//141 49//141 178//141 174//141
f 49//142 50//142 171//142 178//142
f 51//143 52//143 177//143 172//143
f 53//144 54//144 176//144 175//144
f 55//145 56//145 174//145 173//145
f 50//146 51//146 172//146 171//146
usemtl FFFFFF
f 111//14 101//14 100//14 107//14
f 107//10 100//10 103//10 112//10
usemtl 1A1A1A
f 179//65 180//65 42//65 41//65
f 181//64 179//64 41//64 48//64
f 182//63 183//63 47//63 46//63
f 184//62 185//62 45//62 44//62
f 180//61 186//61 43//61 42//61
f 183//60 181//60 48//60 47//60
f 185//59 182//59 46//59 45//59
f 186//58 184//58 44//58 43//58
usemtl F44336
f 190//65 191//65 188//65 187//65
f 192//64 190//64 187//64 189//64
f 197//147 194//147 193//147 196//147
f 198//148 195//148 194//148 197//148
f 190//149 197//149 196//149 191//149
f 189//150 195//150 198//150 192//150
f 191//151 196//151 193//151 188//151
f 188//152 193//152 194//152 187//152
f 192//153 198//153 197//153 190//153
f 187//154 194//154 195//154 189//154
