# Blender v2.78 (sub 0) OBJ File: '3.5.blend'
# www.blender.org
mtllib bottle3.mtl
o Circle.004
v 0.000000 0.516482 -1.338781
v -0.946661 0.516482 -0.946661
v -1.338781 0.516482 0.000000
v -0.946661 0.516482 0.946661
v 0.000000 0.516482 1.338781
v 0.946661 0.516482 0.946660
v 1.338781 0.516482 -0.000000
v 0.946661 0.516482 -0.946661
v 0.000000 5.058240 -1.338781
v -0.946661 5.058240 -0.946661
v -1.338781 5.058240 0.000000
v -0.946661 5.058240 0.946661
v 0.000000 5.058240 1.338781
v 0.946661 5.058240 0.946660
v 1.338781 5.058240 -0.000000
v 0.946661 5.058240 -0.946661
v 0.000000 5.735953 -1.188242
v -0.840214 5.735953 -0.840214
v -1.188242 5.735953 0.000000
v -0.840214 5.735953 0.840214
v 0.000000 5.735953 1.188242
v 0.840214 5.735953 0.840214
v 1.188242 5.735953 -0.000000
v 0.840214 5.735953 -0.840214
v 0.000000 6.383069 -0.957153
v -0.676810 6.383069 -0.676810
v -0.957153 6.383069 0.000000
v -0.676810 6.383069 0.676810
v 0.000000 6.383069 0.957153
v 0.676810 6.383069 0.676809
v 0.957153 6.383069 -0.000000
v 0.676810 6.383069 -0.676810
v 0.000000 7.109268 -0.567365
v -0.401188 7.109268 -0.401188
v -0.567365 7.109268 0.000000
v -0.401188 7.109268 0.401188
v 0.000000 7.109268 0.567365
v 0.401188 7.109268 0.401188
v 0.567365 7.109268 -0.000000
v 0.401188 7.109268 -0.401188
v 0.000000 7.445991 -0.406051
v -0.287122 7.445991 -0.287122
v -0.406051 7.445991 0.000000
v -0.287122 7.445991 0.287122
v 0.000000 7.445991 0.406051
v 0.287122 7.445991 0.287122
v 0.406051 7.445991 -0.000000
v 0.287122 7.445991 -0.287122
v 0.000000 9.266405 -0.406051
v -0.287122 9.266405 -0.287122
v -0.406051 9.266405 0.000000
v -0.287122 9.266405 0.287122
v 0.000000 9.266405 0.406051
v 0.287122 9.266405 0.287122
v 0.406051 9.266405 -0.000000
v 0.287122 9.266405 -0.287122
v 0.000000 0.004215 -1.299376
v -0.918798 0.004215 -0.918798
v -1.299376 0.004215 0.000000
v -0.918798 0.004215 0.918798
v 0.000000 0.004215 1.299376
v 0.918798 0.004215 0.918798
v 1.299376 0.004215 -0.000000
v 0.918798 0.004215 -0.918798
v 0.000000 0.004215 -1.063133
v -0.751749 0.004215 -0.751749
v -1.063133 0.004215 0.000000
v -0.751749 0.004215 0.751749
v 0.000000 0.004215 1.063133
v 0.751749 0.004215 0.751749
v 1.063133 0.004215 -0.000000
v 0.751749 0.004215 -0.751749
v 0.000000 0.229538 -0.832913
v -0.588958 0.229538 -0.588958
v -0.832913 0.229538 0.000000
v -0.588958 0.229538 0.588958
v 0.000000 0.229538 0.832913
v 0.588958 0.229538 0.588958
v 0.832913 0.229538 -0.000000
v 0.588958 0.229538 -0.588958
v 0.000000 0.379754 -0.416944
v -0.294824 0.379754 -0.294824
v -0.416944 0.379754 0.000000
v -0.294824 0.379754 0.294824
v 0.000000 0.379754 0.416944
v 0.294824 0.379754 0.294824
v 0.416944 0.379754 -0.000000
v 0.294824 0.379754 -0.294824
v 0.000000 0.483338 -0.000000
v 0.942612 0.260349 0.942611
v 0.000000 0.260349 1.333054
v -0.942612 0.260349 0.942612
v -1.333054 0.260349 0.000000
v -0.942612 0.260349 -0.942612
v -0.000000 0.260349 -1.333054
v 0.942612 0.260349 -0.942611
v 1.333054 0.260349 -0.000000
v 0.000000 9.281316 -0.435834
v -0.308181 9.281316 -0.308181
v -0.435833 9.281316 0.000000
v -0.308181 9.281316 0.308181
v 0.000000 9.281316 0.435834
v 0.308181 9.281316 0.308181
v 0.435834 9.281316 -0.000000
v 0.308181 9.281316 -0.308181
v 0.000000 9.465219 -0.435834
v -0.308181 9.465219 -0.308181
v -0.435833 9.465219 0.000000
v -0.308181 9.465219 0.308181
v 0.000000 9.465219 0.435834
v 0.308181 9.465219 0.308181
v 0.435834 9.465219 -0.000000
v 0.308181 9.465219 -0.308181
v 0.000000 9.465219 -0.347790
v -0.245925 9.465219 -0.245925
v -0.347790 9.465219 0.000000
v -0.245925 9.465219 0.245925
v 0.000000 9.465219 0.347790
v 0.245925 9.465219 0.245925
v 0.347790 9.465219 -0.000000
v 0.245925 9.465219 -0.245925
v 0.000000 9.951153 -0.196585
v -0.139007 9.951153 -0.139007
v -0.196585 9.951153 0.000000
v -0.139007 9.951153 0.139007
v 0.000000 9.951153 0.196585
v 0.139007 9.951153 0.139007
v 0.196585 9.951153 -0.000000
v 0.139007 9.951153 -0.139007
v 0.000000 9.951153 -0.000000
v 0.000000 9.951153 -0.315624
v 0.000000 9.921436 -0.347790
v -0.245925 9.921436 -0.245925
v -0.223180 9.951153 -0.223180
v -0.347790 9.921436 0.000000
v -0.315624 9.951153 0.000000
v -0.245925 9.921436 0.245925
v -0.223180 9.951153 0.223180
v 0.000000 9.921436 0.347790
v 0.000000 9.951153 0.315624
v 0.245925 9.921436 0.245925
v 0.223180 9.951153 0.223180
v 0.347790 9.921436 -0.000000
v 0.315624 9.951153 -0.000000
v 0.245925 9.921436 -0.245925
v 0.223180 9.951153 -0.223180
v 0.000000 3.551599 1.338781
v 0.946661 3.551599 0.946660
v -1.338781 3.551599 0.000000
v -0.946661 3.551599 0.946661
v 0.000000 4.096615 -1.338781
v -0.946661 3.551599 -0.946661
v 0.946661 3.551599 -0.946661
v 1.338781 3.551599 -0.000000
vn 0.3827 0.0000 0.9239
vn -0.9239 0.0000 0.3827
vn -0.3827 0.0000 -0.9239
vn 0.3827 0.0000 -0.9239
vn 0.9239 0.0000 0.3827
vn -0.3827 0.0000 0.9239
vn -0.9239 0.0000 -0.3827
vn 0.9239 0.0000 -0.3827
vn 0.3749 0.2010 -0.9050
vn 0.9050 0.2010 0.3749
vn -0.3749 0.2010 0.9050
vn -0.9050 0.2010 -0.3749
vn 0.9050 0.2010 -0.3749
vn 0.3749 0.2010 0.9050
vn -0.9050 0.2010 0.3749
vn -0.3749 0.2010 -0.9050
vn -0.8774 0.3133 0.3634
vn -0.3634 0.3133 -0.8774
vn 0.3634 0.3133 -0.8774
vn 0.8774 0.3133 0.3634
vn -0.3634 0.3133 0.8774
vn -0.8774 0.3133 -0.3634
vn 0.8774 0.3133 -0.3634
vn 0.3634 0.3133 0.8774
vn 0.8277 0.4443 -0.3428
vn 0.3428 0.4443 0.8277
vn -0.8277 0.4443 0.3428
vn -0.3428 0.4443 -0.8277
vn 0.3428 0.4443 -0.8277
vn 0.8277 0.4443 0.3428
vn -0.3428 0.4443 0.8277
vn -0.8277 0.4443 -0.3428
vn -0.3499 0.4047 0.8448
vn -0.8448 0.4047 -0.3499
vn 0.8448 0.4047 -0.3499
vn 0.3499 0.4047 0.8448
vn -0.8448 0.4047 0.3499
vn -0.3499 0.4047 -0.8448
vn 0.3499 0.4047 -0.8448
vn 0.8448 0.4047 0.3499
vn 0.3799 -0.1206 0.9171
vn -0.9171 -0.1206 0.3799
vn -0.3799 -0.1206 -0.9171
vn 0.3799 -0.1206 -0.9171
vn 0.9171 -0.1206 0.3799
vn -0.3799 -0.1206 0.9171
vn -0.9171 -0.1206 -0.3799
vn 0.9171 -0.1206 -0.3799
vn 0.0000 -1.0000 0.0000
vn -0.6718 -0.6864 -0.2783
vn 0.2783 -0.6864 -0.6718
vn 0.6718 -0.6864 0.2783
vn -0.6718 -0.6864 0.2783
vn -0.2783 -0.6864 -0.6718
vn 0.6718 -0.6864 -0.2783
vn 0.2783 -0.6864 0.6718
vn -0.2783 -0.6864 0.6718
vn 0.3363 -0.9314 -0.1393
vn 0.1393 -0.9314 0.3363
vn -0.1393 -0.9314 0.3363
vn -0.3363 -0.9314 -0.1393
vn 0.1393 -0.9314 -0.3363
vn 0.3363 -0.9314 0.1393
vn -0.3363 -0.9314 0.1393
vn -0.1393 -0.9314 -0.3363
vn -0.2399 -0.9657 0.0994
vn -0.0994 -0.9657 -0.2399
vn 0.2399 -0.9657 -0.0994
vn 0.0994 -0.9657 0.2399
vn -0.0994 -0.9657 0.2399
vn -0.2399 -0.9657 -0.0994
vn 0.0994 -0.9657 -0.2399
vn 0.2399 -0.9657 0.0994
vn 0.9237 -0.0207 -0.3826
vn -0.9237 -0.0206 -0.3826
vn -0.3826 -0.0206 0.9237
vn 0.9237 -0.0206 0.3826
vn 0.3826 -0.0207 -0.9237
vn -0.3826 -0.0206 -0.9237
vn -0.9237 -0.0206 0.3826
vn 0.3826 -0.0206 0.9237
vn 0.4402 -0.8792 -0.1823
vn 0.1823 -0.8792 0.4402
vn -0.4402 -0.8792 0.1823
vn -0.1823 -0.8792 -0.4402
vn 0.1823 -0.8792 -0.4402
vn 0.4402 -0.8792 0.1823
vn -0.1823 -0.8792 0.4402
vn -0.4402 -0.8792 -0.1823
vn 0.0000 1.0000 0.0000
vn -0.2706 0.7071 -0.6533
vn -0.6533 0.7071 -0.2706
vn -0.6533 0.7071 0.2706
vn -0.2706 0.7071 0.6533
vn 0.2706 0.7071 0.6533
vn 0.6533 0.7071 0.2706
vn 0.6533 0.7071 -0.2706
vn 0.2706 0.7071 -0.6533
usemtl 1A1A1A
s off
f 147//1 148//1 14//1 13//1
f 149//2 150//2 12//2 11//2
f 151//3 152//3 10//3 9//3
f 153//4 151//4 9//4 16//4
f 148//5 154//5 15//5 14//5
f 150//6 147//6 13//6 12//6
f 152//7 149//7 11//7 10//7
f 154//8 153//8 16//8 15//8
f 16//9 9//9 17//9 24//9
f 14//10 15//10 23//10 22//10
f 12//11 13//11 21//11 20//11
f 10//12 11//12 19//12 18//12
f 15//13 16//13 24//13 23//13
f 13//14 14//14 22//14 21//14
f 11//15 12//15 20//15 19//15
f 9//16 10//16 18//16 17//16
f 19//17 20//17 28//17 27//17
f 17//18 18//18 26//18 25//18
f 24//19 17//19 25//19 32//19
f 22//20 23//20 31//20 30//20
f 20//21 21//21 29//21 28//21
f 18//22 19//22 27//22 26//22
f 23//23 24//23 32//23 31//23
f 21//24 22//24 30//24 29//24
f 31//25 32//25 40//25 39//25
f 29//26 30//26 38//26 37//26
f 27//27 28//27 36//27 35//27
f 25//28 26//28 34//28 33//28
f 32//29 25//29 33//29 40//29
f 30//30 31//30 39//30 38//30
f 28//31 29//31 37//31 36//31
f 26//32 27//32 35//32 34//32
f 36//33 37//33 45//33 44//33
f 34//34 35//34 43//34 42//34
f 39//35 40//35 48//35 47//35
f 37//36 38//36 46//36 45//36
f 35//37 36//37 44//37 43//37
f 33//38 34//38 42//38 41//38
f 40//39 33//39 41//39 48//39
f 38//40 39//40 47//40 46//40
f 48//4 41//4 49//4 56//4
f 46//5 47//5 55//5 54//5
f 44//6 45//6 53//6 52//6
f 42//7 43//7 51//7 50//7
f 47//8 48//8 56//8 55//8
f 45//1 46//1 54//1 53//1
f 43//2 44//2 52//2 51//2
f 41//3 42//3 50//3 49//3
f 90//41 91//41 61//41 62//41
f 92//42 93//42 59//42 60//42
f 94//43 95//43 57//43 58//43
f 95//44 96//44 64//44 57//44
f 97//45 90//45 62//45 63//45
f 91//46 92//46 60//46 61//46
f 93//47 94//47 58//47 59//47
f 96//48 97//48 63//48 64//48
f 64//49 63//49 71//49 72//49
f 62//49 61//49 69//49 70//49
f 60//49 59//49 67//49 68//49
f 58//49 57//49 65//49 66//49
f 57//49 64//49 72//49 65//49
f 63//49 62//49 70//49 71//49
f 61//49 60//49 68//49 69//49
f 59//49 58//49 66//49 67//49
f 71//50 70//50 78//50 79//50
f 69//51 68//51 76//51 77//51
f 67//52 66//52 74//52 75//52
f 72//53 71//53 79//53 80//53
f 70//54 69//54 77//54 78//54
f 68//55 67//55 75//55 76//55
f 66//56 65//56 73//56 74//56
f 65//57 72//57 80//57 73//57
f 76//58 75//58 83//58 84//58
f 74//59 73//59 81//59 82//59
f 73//60 80//60 88//60 81//60
f 79//61 78//61 86//61 87//61
f 77//62 76//62 84//62 85//62
f 75//63 74//63 82//63 83//63
f 80//64 79//64 87//64 88//64
f 78//65 77//65 85//65 86//65
f 88//66 87//66 89//66
f 86//67 85//67 89//67
f 84//68 83//68 89//68
f 82//69 81//69 89//69
f 81//70 88//70 89//70
f 87//71 86//71 89//71
f 85//72 84//72 89//72
f 83//73 82//73 89//73
f 8//74 7//74 97//74 96//74
f 3//75 2//75 94//75 93//75
f 5//76 4//76 92//76 91//76
f 7//77 6//77 90//77 97//77
f 1//78 8//78 96//78 95//78
f 2//79 1//79 95//79 94//79
f 4//80 3//80 93//80 92//80
f 6//81 5//81 91//81 90//81
f 55//82 56//82 105//82 104//82
f 53//83 54//83 103//83 102//83
f 51//84 52//84 101//84 100//84
f 49//85 50//85 99//85 98//85
f 56//86 49//86 98//86 105//86
f 54//87 55//87 104//87 103//87
f 52//88 53//88 102//88 101//88
f 50//89 51//89 100//89 99//89
f 99//7 100//7 108//7 107//7
f 104//8 105//8 113//8 112//8
f 102//1 103//1 111//1 110//1
f 100//2 101//2 109//2 108//2
f 98//3 99//3 107//3 106//3
f 105//4 98//4 106//4 113//4
f 103//5 104//5 112//5 111//5
f 101//6 102//6 110//6 109//6
f 113//90 106//90 114//90 121//90
f 111//90 112//90 120//90 119//90
f 109//90 110//90 118//90 117//90
f 107//90 108//90 116//90 115//90
f 112//90 113//90 121//90 120//90
f 110//90 111//90 119//90 118//90
f 108//90 109//90 117//90 116//90
f 106//90 107//90 115//90 114//90
usemtl FFFFFF
f 7//8 8//8 153//8 154//8
f 2//7 3//7 149//7 152//7
f 4//6 5//6 147//6 150//6
f 6//5 7//5 154//5 148//5
f 8//4 1//4 151//4 153//4
f 1//3 2//3 152//3 151//3
f 3//2 4//2 150//2 149//2
f 5//1 6//1 148//1 147//1
usemtl DD9944
f 138//90 140//90 126//90 125//90
f 146//90 131//90 122//90 129//90
f 114//3 115//3 133//3 132//3
f 144//90 146//90 129//90 128//90
f 140//90 142//90 127//90 126//90
f 136//90 138//90 125//90 124//90
f 142//90 144//90 128//90 127//90
f 120//8 121//8 145//8 143//8
f 118//1 119//1 141//1 139//1
f 116//2 117//2 137//2 135//2
f 121//4 114//4 132//4 145//4
f 134//90 136//90 124//90 123//90
f 119//5 120//5 143//5 141//5
f 117//6 118//6 139//6 137//6
f 115//7 116//7 135//7 133//7
f 125//90 126//90 130//90
f 123//90 124//90 130//90
f 128//90 129//90 130//90
f 126//90 127//90 130//90
f 124//90 125//90 130//90
f 122//90 123//90 130//90
f 129//90 122//90 130//90
f 127//90 128//90 130//90
f 134//91 131//91 132//91 133//91
f 136//92 134//92 133//92 135//92
f 138//93 136//93 135//93 137//93
f 140//94 138//94 137//94 139//94
f 142//95 140//95 139//95 141//95
f 144//96 142//96 141//96 143//96
f 146//97 144//97 143//97 145//97
f 131//98 146//98 145//98 132//98
f 131//90 134//90 123//90 122//90
