# Blender v2.78 (sub 0) OBJ File: 'CHAHIN_BOTTLE_OF_WINE.blend'
# www.blender.org
mtllib bottle5.mtl
o Cube.007_Cube.005
v -0.451044 -1.552500 0.451039
v -0.451044 0.669765 0.451039
v -0.451044 -1.552500 -0.451043
v -0.451044 0.669765 -0.451043
v 0.451038 -1.552500 0.451039
v 0.451038 0.669765 0.451039
v 0.451038 -1.552500 -0.451043
v 0.451038 0.669765 -0.451043
v -0.151808 1.314678 0.151804
v -0.151808 1.314678 -0.151807
v 0.151802 1.314678 -0.151807
v 0.151802 1.314678 0.151804
v -0.130779 1.718921 0.130774
v -0.130779 1.718921 -0.130778
v 0.130773 1.718921 -0.130778
v 0.130773 1.718921 0.130774
v -0.130779 2.651412 0.130774
v -0.130779 2.651412 -0.130778
v 0.130773 2.651412 -0.130778
v 0.130773 2.651412 0.130774
v 0.158071 2.344551 -0.158076
v 0.158071 2.447040 -0.158076
v -0.158077 2.447040 -0.158076
v -0.158077 2.344551 -0.158076
v 0.130773 2.447040 -0.130778
v 0.130773 2.344551 -0.130778
v 0.130773 2.344551 0.130774
v 0.130773 2.447040 0.130774
v -0.130779 2.447040 0.130774
v -0.130779 2.344551 0.130774
v -0.130779 2.344551 -0.130778
v -0.130779 2.447040 -0.130778
v 0.158071 2.344551 0.158072
v 0.158071 2.447040 0.158072
v -0.158077 2.447040 0.158072
v -0.158077 2.344551 0.158072
v -0.451044 -0.655672 0.451039
v -0.451044 -0.655672 -0.451043
v 0.451038 -0.655672 -0.451043
v 0.451038 -0.655672 0.451039
v -0.451044 0.489901 0.451039
v -0.451044 0.489901 -0.451043
v 0.451038 0.489901 -0.451043
v 0.451038 0.489901 0.451039
v -0.634428 -1.552500 -0.000002
v -0.634428 0.669765 -0.000002
v 0.634422 -1.552500 -0.000002
v 0.634422 0.669765 -0.000002
v -0.213529 1.314678 -0.000002
v 0.213523 1.314678 -0.000002
v -0.183950 1.718921 -0.000002
v 0.183944 1.718921 -0.000002
v -0.183950 2.651412 -0.000002
v 0.183944 2.651412 -0.000002
v 0.222341 2.344551 -0.000002
v 0.222341 2.447040 -0.000002
v -0.222347 2.344551 -0.000002
v -0.222347 2.447040 -0.000002
v -0.183950 2.447040 -0.000002
v -0.183950 2.344551 -0.000002
v 0.183944 2.447040 -0.000002
v 0.183944 2.344551 -0.000002
v 0.634422 -0.655672 -0.000002
v -0.634428 -0.655672 -0.000002
v 0.634422 0.489901 -0.000002
v -0.634428 0.489901 -0.000002
v -0.000003 -1.552500 -0.634427
v -0.000003 0.669765 -0.634427
v -0.000003 -1.552500 0.634423
v -0.000003 0.669765 0.634423
v -0.000003 1.314678 -0.213528
v -0.000003 1.314678 0.213525
v -0.000003 1.718921 -0.183949
v -0.000003 1.718921 0.183946
v -0.000003 2.651412 -0.183949
v -0.000003 2.651412 0.183946
v -0.000003 2.344551 0.222342
v -0.000003 2.447040 -0.222346
v -0.000003 2.344551 -0.222346
v -0.000003 2.447040 0.222342
v -0.000003 2.447040 -0.183949
v -0.000003 2.344551 -0.183949
v -0.000003 2.447040 0.183946
v -0.000003 2.344551 0.183946
v -0.000003 -0.655672 0.634423
v -0.000003 -0.655672 -0.634427
v -0.000003 0.489901 0.634423
v -0.000003 0.489901 -0.634427
v -0.000003 2.651412 -0.000002
v -0.000003 -1.552500 -0.000002
v 0.265944 1.109381 0.265946
v 0.396008 0.905746 0.396010
v -0.265950 1.109381 0.265946
v -0.396014 0.905746 0.396010
v -0.265950 1.109381 -0.265949
v -0.396014 0.905746 -0.396013
v 0.265944 1.109381 -0.265949
v 0.396008 0.905746 -0.396013
v -0.557025 0.905746 -0.000002
v -0.374079 1.109381 -0.000002
v 0.557019 0.905746 -0.000002
v 0.374073 1.109381 -0.000002
v -0.000003 0.905746 -0.557024
v -0.000003 1.109381 -0.374078
v -0.000003 0.905746 0.557020
v -0.000003 1.109381 0.374074
vt 0.6634 0.7579
vt 0.6634 0.7708
vt 0.6218 0.7708
vt 0.6218 0.7579
vt 0.8232 0.7042
vt 0.8232 0.6914
vt 0.8647 0.6914
vt 0.8647 0.7042
vt 0.8014 0.8071
vt 0.8014 0.7942
vt 0.8429 0.7942
vt 0.8429 0.8071
vt 0.7359 0.7252
vt 0.7415 0.7366
vt 0.7045 0.7559
vt 0.6988 0.7444
vt 0.7433 0.6628
vt 0.6931 0.6419
vt 0.7221 0.6113
vt 0.7637 0.6113
vt 0.8039 0.7767
vt 0.8403 0.7767
vt 0.8149 0.7444
vt 0.8049 0.7433
vt 0.8072 0.7142
vt 0.8159 0.7151
vt 0.6609 0.7883
vt 0.6244 0.7883
vt 0.8560 0.6576
vt 0.8315 0.6576
vt 0.8367 0.6415
vt 0.8507 0.6415
vt 0.7271 0.7820
vt 0.7490 0.7706
vt 0.7515 0.7874
vt 0.7390 0.7939
vt 0.2220 0.8372
vt 0.1893 0.8372
vt 0.1893 0.7202
vt 0.2220 0.7202
vt 0.6499 0.8201
vt 0.6599 0.8210
vt 0.6575 0.8501
vt 0.6489 0.8493
vt 0.7609 0.7837
vt 0.7716 0.8107
vt 0.7635 0.8139
vt 0.8267 0.6404
vt 0.8290 0.6113
vt 0.8377 0.6123
vt 0.1334 0.8291
vt 0.1173 0.8678
vt 0.0939 0.8454
vt 0.0939 0.8134
vt 0.2689 0.6031
vt 0.3016 0.6031
vt 0.3016 0.7202
vt 0.2689 0.7202
vt 0.2220 0.7202
vt 0.1893 0.7202
vt 0.1893 0.6031
vt 0.2220 0.6031
vt 0.2689 0.7202
vt 0.3016 0.7202
vt 0.3016 0.8372
vt 0.2689 0.8372
vt 0.3016 0.6352
vt 0.3016 0.6031
vt 0.3406 0.6031
vt 0.3406 0.6352
vt 0.3406 0.7362
vt 0.3406 0.7683
vt 0.3016 0.7683
vt 0.3016 0.7362
vt 0.3602 0.7085
vt 0.3602 0.7362
vt 0.3406 0.7362
vt 0.3406 0.7085
vt 0.3016 0.6903
vt 0.3016 0.6582
vt 0.3406 0.6582
vt 0.3406 0.6903
vt 0.1021 0.7278
vt 0.1021 0.7599
vt 0.0939 0.7633
vt 0.0939 0.7245
vt 0.1811 0.6657
vt 0.1811 0.6336
vt 0.1893 0.6302
vt 0.1893 0.6689
vt 0.1255 0.6886
vt 0.1583 0.6886
vt 0.1617 0.6967
vt 0.1222 0.6967
vt 0.1577 0.6112
vt 0.1249 0.6112
vt 0.1215 0.6031
vt 0.1610 0.6031
vt 0.3406 0.7913
vt 0.3406 0.8234
vt 0.3016 0.8234
vt 0.3016 0.7913
vt 0.3602 0.6419
vt 0.3602 0.6697
vt 0.3406 0.6697
vt 0.3406 0.6419
vt 0.3406 0.8306
vt 0.3406 0.8028
vt 0.3602 0.8028
vt 0.3602 0.8306
vt 0.3406 0.7640
vt 0.3406 0.7362
vt 0.3602 0.7362
vt 0.3602 0.7640
vt 0.1021 0.6342
vt 0.1021 0.6663
vt 0.0939 0.6697
vt 0.0939 0.6309
vt 0.1811 0.7593
vt 0.1811 0.7272
vt 0.1893 0.7238
vt 0.1893 0.7626
vt 0.1577 0.7048
vt 0.1249 0.7048
vt 0.1215 0.6967
vt 0.1610 0.6967
vt 0.1255 0.7823
vt 0.1583 0.7823
vt 0.1617 0.7904
vt 0.1222 0.7904
vt 0.8374 0.8377
vt 0.9000 0.8377
vt 0.9000 0.8803
vt 0.8374 0.8803
vt 0.7589 0.8621
vt 0.6963 0.8621
vt 0.6963 0.8195
vt 0.7589 0.8195
vt 0.7716 0.8377
vt 0.8342 0.8377
vt 0.8342 0.8803
vt 0.7716 0.8803
vt 0.6634 0.6113
vt 0.6634 0.6757
vt 0.6218 0.6757
vt 0.6218 0.6113
vt 0.4404 0.2585
vt 0.4404 0.4012
vt 0.3573 0.4012
vt 0.3573 0.2585
vt 0.4169 0.2585
vt 0.4169 0.1158
vt 0.5000 0.1158
vt 0.5000 0.2585
vt 0.5595 0.2585
vt 0.5595 0.1158
vt 0.6427 0.1158
vt 0.6427 0.2585
vt 0.6931 0.6783
vt 0.6931 0.7605
vt 0.3573 0.2585
vt 0.3573 0.1158
vt 0.6931 0.6139
vt 0.7557 0.8926
vt 0.6931 0.8926
vt 0.3406 0.8028
vt 0.3602 0.8028
vt 0.3406 0.8694
vt 0.3602 0.8694
vt 0.3406 0.7683
vt 0.3016 0.7683
vt 0.3406 0.7132
vt 0.3016 0.7132
vt 0.2455 0.7202
vt 0.2455 0.8372
vt 0.2455 0.6031
vt 0.2455 0.7202
vt 0.1728 0.8449
vt 0.1500 0.8678
vt 0.6359 0.8201
vt 0.6369 0.8493
vt 0.7934 0.6881
vt 0.7995 0.6710
vt 0.8257 0.6738
vt 0.7695 0.7257
vt 0.7716 0.7439
vt 0.7471 0.7535
vt 0.8289 0.7444
vt 0.8279 0.7151
vt 0.7229 0.7142
vt 0.6931 0.6845
vt 0.7716 0.8039
vt 0.7716 0.7910
vt 0.6931 0.7734
vt 0.7644 0.7142
vt 0.7934 0.6837
vt 0.1728 0.8128
vt 0.1494 0.7904
vt 0.5000 0.2585
vt 0.5000 0.1158
vt 0.5000 0.4012
vt 0.7748 0.8071
vt 0.8374 0.8071
vt 0.8405 0.8071
vt 0.9031 0.8071
vt 0.3602 0.6031
vt 0.3406 0.6031
vt 0.3016 0.7132
vt 0.3406 0.7132
vt 0.3602 0.6697
vt 0.3406 0.6697
vt 0.3016 0.6582
vt 0.3406 0.6582
vt 0.2455 0.7202
vt 0.2455 0.6031
vt 0.1167 0.7904
vt 0.8497 0.6123
vt 0.7528 0.8195
vt 0.2455 0.8372
vt 0.2455 0.7202
vt 0.7777 0.7738
vt 0.6870 0.7906
vt 0.7934 0.6411
vt 0.7638 0.7142
vt 0.7934 0.7010
vt 0.6550 0.8042
vt 0.6726 0.8057
vt 0.8097 0.7605
vt 0.7922 0.7586
vt 0.8342 0.7605
vt 0.6305 0.8042
vt 0.8140 0.6557
vt 0.8621 0.6738
vt 0.7146 0.7704
vt 0.7127 0.7917
vt 0.6931 0.7848
vt 0.7655 0.7642
vn -0.9264 0.0000 -0.3766
vn 0.3766 0.0000 -0.9264
vn 0.9264 0.0000 0.3766
vn -0.3766 0.0000 0.9264
vn 0.0000 -1.0000 0.0000
vn 0.8863 0.2907 0.3604
vn 0.9242 0.0676 -0.3758
vn -0.8863 0.2907 -0.3604
vn 0.3050 0.5867 -0.7502
vn -0.3050 0.5867 0.7502
vn -0.3766 0.0000 -0.9264
vn -0.9242 0.0676 0.3758
vn 0.3758 0.0676 0.9242
vn -0.3758 0.0676 -0.9242
vn 0.0000 1.0000 -0.0000
vn -0.9264 0.0000 0.3766
vn 0.3766 0.0000 0.9264
vn 0.9264 0.0000 -0.3766
vn -0.9242 0.0676 -0.3758
vn -0.3604 0.2907 -0.8863
vn 0.3604 0.2907 0.8863
vn 0.9242 0.0676 0.3758
vn 0.3758 0.0676 -0.9242
vn -0.3758 0.0676 0.9242
vn 0.8863 0.2907 -0.3604
vn -0.8863 0.2907 0.3604
vn -0.7502 0.5867 0.3050
vn 0.7502 0.5867 -0.3050
vn 0.7502 0.5867 0.3050
vn -0.7502 0.5867 -0.3050
vn -0.3050 0.5867 -0.7502
vn 0.3604 0.2907 -0.8863
vn -0.3604 0.2907 0.8863
vn -0.2895 0.6397 0.7120
vn 0.2895 0.6397 -0.7120
vn 0.7120 0.6397 0.2895
vn -0.7120 0.6397 -0.2895
vn -0.7120 0.6397 0.2895
vn 0.7120 0.6397 -0.2895
vn -0.2895 0.6397 -0.7120
vn 0.2895 0.6397 0.7120
vn 0.3050 0.5867 0.7502
usemtl Material.029
s off
f 66/1/1 46/2/1 4/3/1 42/4/1
f 88/5/2 68/6/2 8/7/2 43/8/2
f 65/9/3 48/10/3 6/11/3 44/12/3
f 87/13/4 70/14/4 2/15/4 41/16/4
f 90/17/5 47/18/5 5/19/5 69/20/5
f 6/11/6 48/10/6 101/21/6 92/22/6
f 50/23/7 11/24/7 15/25/7 52/26/7
f 4/3/8 46/2/8 99/27/8 96/28/8
f 97/29/9 104/30/9 71/31/9 11/32/9
f 93/33/10 106/34/10 72/35/10 9/36/10
f 73/37/11 14/38/11 31/39/11 82/40/11
f 49/41/12 9/42/12 13/43/12 51/44/12
f 72/35/13 12/45/13 16/46/13 74/47/13
f 71/31/14 10/48/14 14/49/14 73/50/14
f 89/51/15 53/52/15 17/53/15 76/54/15
f 51/55/16 13/56/16 30/57/16 60/58/16
f 74/59/17 16/60/17 27/61/17 84/62/17
f 52/63/18 15/64/18 26/65/18 62/66/18
f 81/67/11 32/68/11 18/69/11 75/70/11
f 59/71/16 29/72/16 17/73/16 53/74/16
f 78/75/2 22/76/2 21/77/2 79/78/2
f 83/79/17 28/80/17 20/81/17 76/82/17
f 83/83/15 29/84/15 35/85/15 80/86/15
f 84/87/5 27/88/5 33/89/5 77/90/5
f 60/91/5 30/92/5 36/93/5 57/94/5
f 62/95/5 26/96/5 21/97/5 55/98/5
f 61/99/18 25/100/18 19/101/18 54/102/18
f 80/103/4 35/104/4 36/105/4 77/106/4
f 58/107/1 23/108/1 24/109/1 57/110/1
f 56/111/3 34/112/3 33/113/3 55/114/3
f 82/115/5 31/116/5 24/117/5 79/118/5
f 81/119/15 25/120/15 22/121/15 78/122/15
f 61/123/15 28/124/15 34/125/15 56/126/15
f 59/127/15 32/128/15 23/129/15 58/130/15
f 69/131/4 85/132/4 37/133/4 1/134/4
f 47/135/3 63/136/3 40/137/3 5/138/3
f 67/139/2 86/140/2 39/141/2 7/142/2
f 45/143/1 64/144/1 38/145/1 3/146/1
f 85/147/4 87/148/4 41/149/4 37/150/4
f 63/151/3 65/152/3 44/153/3 40/154/3
f 86/155/2 88/156/2 43/157/2 39/158/2
f 64/144/1 66/1/1 42/4/1 38/145/1
f 37/159/16 41/160/16 66/1/16 64/144/16
f 39/161/18 43/162/18 65/152/18 63/151/18
f 1/163/16 37/159/16 64/144/16 45/143/16
f 7/164/18 39/165/18 63/136/18 47/135/18
f 29/84/15 59/127/15 58/130/15 35/85/15
f 25/120/15 61/123/15 56/126/15 22/121/15
f 22/166/18 56/111/18 55/114/18 21/167/18
f 35/168/16 58/107/16 57/110/16 36/169/16
f 28/170/3 61/99/3 54/102/3 20/171/3
f 27/88/5 62/95/5 55/98/5 33/89/5
f 31/116/5 60/91/5 57/94/5 24/117/5
f 32/172/1 59/71/1 53/74/1 18/173/1
f 16/174/3 52/63/3 62/66/3 27/175/3
f 14/176/1 51/55/1 60/58/1 31/177/1
f 75/178/15 18/179/15 53/52/15 89/51/15
f 10/180/19 49/41/19 51/44/19 14/181/19
f 68/6/20 4/182/20 96/183/20 103/184/20
f 70/14/21 6/185/21 92/186/21 105/187/21
f 12/188/22 50/23/22 52/26/22 16/189/22
f 67/190/5 7/191/5 47/18/5 90/17/5
f 43/192/18 8/193/18 48/10/18 65/9/18
f 41/160/16 2/194/16 46/2/16 66/1/16
f 3/195/5 67/190/5 90/17/5 45/196/5
f 19/197/15 75/178/15 89/51/15 54/198/15
f 38/199/11 42/200/11 88/156/11 86/155/11
f 40/154/17 44/201/17 87/148/17 85/147/17
f 3/202/11 38/203/11 86/140/11 67/139/11
f 5/204/17 40/205/17 85/132/17 69/131/17
f 32/128/15 81/119/15 78/122/15 23/129/15
f 26/96/5 82/115/5 79/118/5 21/97/5
f 34/206/17 80/103/17 77/106/17 33/207/17
f 30/92/5 84/87/5 77/90/5 36/93/5
f 28/124/15 83/83/15 80/86/15 34/125/15
f 29/208/4 83/79/4 76/82/4 17/209/4
f 23/210/11 78/75/11 79/78/11 24/211/11
f 25/212/2 81/67/2 75/70/2 19/213/2
f 13/214/4 74/59/4 84/62/4 30/215/4
f 54/198/15 89/51/15 76/54/15 20/216/15
f 11/32/23 71/31/23 73/50/23 15/217/23
f 9/36/24 72/35/24 74/47/24 13/218/24
f 15/219/2 73/37/2 82/40/2 26/220/2
f 48/10/25 8/193/25 98/221/25 101/21/25
f 46/2/26 2/194/26 94/222/26 99/27/26
f 45/196/5 90/17/5 69/20/5 1/223/5
f 44/224/17 6/185/17 70/14/17 87/13/17
f 42/225/11 4/182/11 68/6/11 88/5/11
f 100/226/27 93/227/27 9/42/27 49/41/27
f 102/228/28 97/229/28 11/24/28 50/23/28
f 91/230/29 102/228/29 50/23/29 12/188/29
f 95/231/30 100/226/30 49/41/30 10/180/30
f 104/30/31 95/232/31 10/48/31 71/31/31
f 8/7/32 68/6/32 103/184/32 98/233/32
f 2/15/33 70/14/33 105/187/33 94/234/33
f 106/34/34 93/33/34 94/234/34 105/187/34
f 104/30/35 97/29/35 98/233/35 103/184/35
f 102/228/36 91/230/36 92/22/36 101/21/36
f 100/226/37 95/231/37 96/28/37 99/27/37
f 93/33/38 100/235/38 99/236/38 94/234/38
f 97/229/39 102/228/39 101/21/39 98/221/39
f 95/232/40 104/30/40 103/184/40 96/183/40
f 91/237/41 106/34/41 105/187/41 92/186/41
f 106/34/42 91/237/42 12/45/42 72/35/42
