# Blender v2.78 (sub 0) OBJ File: '3.5.blend'
# www.blender.org
mtllib Martini_01.mtl
o Circle.003
v 0.037288 6.179186 -0.423517
v -0.471581 9.975396 1.587360
v -0.118454 7.024598 0.088550
v -0.392473 9.068812 1.171382
v -0.410536 9.111558 1.086115
v -0.136516 7.067345 0.003283
v -0.315840 9.129984 1.075293
v -0.041820 7.085771 -0.007540
v -0.297777 9.087238 1.160561
v -0.023758 7.043025 0.077728
v -0.543859 6.486856 0.048443
v 0.101178 6.519249 0.481765
v -0.445448 6.959959 0.657852
v -0.706766 7.247352 0.046988
v -0.321641 6.984251 -0.506630
v 0.177694 6.534262 -0.237919
v 0.336932 7.299778 0.748123
v -0.162404 7.749767 0.479411
v -0.085888 7.764781 -0.240272
v 0.460738 7.324071 -0.416359
v 0.722056 7.036677 0.194504
v 0.606265 7.447884 0.190772
v -0.582841 6.649912 0.393948
v -0.261545 6.390872 0.290447
v -0.203698 6.668953 0.648650
v 0.162574 6.418737 0.122130
v -0.216570 6.399696 -0.132569
v -0.736440 6.818838 0.034894
v -0.678598 7.096921 0.393094
v -0.510070 6.664190 -0.290512
v -0.605826 7.111200 -0.291369
v -0.085952 6.692056 -0.458834
v 0.482545 6.714048 0.376301
v 0.527520 6.722872 -0.046717
v -0.065127 7.127736 0.805213
v 0.256174 6.868692 0.701713
v -0.512230 7.561158 0.288209
v -0.358630 7.392235 0.647270
v -0.240883 7.415338 -0.460221
v -0.467255 7.569983 -0.134808
v 0.373921 6.891795 -0.405777
v 0.080417 7.156294 -0.563721
v 0.621117 7.172830 0.532861
v 0.101242 7.591973 0.700326
v -0.147284 7.865293 0.119363
v 0.218989 7.615077 -0.407157
v 0.693888 7.187109 -0.151601
v 0.525360 7.619839 0.532005
v 0.751731 7.465192 0.206598
v 0.231860 7.884334 0.374061
v 0.276835 7.893158 -0.048955
v 0.598132 7.634118 -0.152456
v 0.679295 7.534640 0.200346
v 0.515697 7.646403 0.435517
v 0.303584 7.837554 0.321371
v 0.336088 7.843931 0.015658
v 0.568288 7.656723 -0.059142
v 0.467086 7.687808 0.180979
v 0.442667 7.559648 0.425943
v 0.230555 7.750798 0.311797
v 0.263058 7.757175 0.006083
v 0.495259 7.569967 -0.068717
v 0.000000 0.011827 -2.427447
v -1.716464 0.011827 -1.716464
v -2.427447 0.011827 0.000000
v -1.716464 0.011827 1.716464
v 0.000000 0.011827 2.427447
v 1.716465 0.011827 1.716464
v 2.427447 0.011827 -0.000000
v 1.716465 0.011827 -1.716464
v 0.000000 0.180018 -2.403053
v -1.699215 0.180018 -1.699215
v -2.403053 0.180018 0.000000
v -1.699215 0.180018 1.699215
v 0.000000 0.180018 2.403053
v 1.699215 0.180018 1.699215
v 2.403053 0.180018 -0.000000
v 1.699215 0.180018 -1.699215
v 0.000000 0.320743 -0.809500
v -0.572403 0.320743 -0.572403
v -0.809500 0.320743 0.000000
v -0.572403 0.320743 0.572403
v 0.000000 0.320743 0.809500
v 0.572403 0.320743 0.572403
v 0.809500 0.320743 -0.000000
v 0.572403 0.320743 -0.572403
v 0.000000 0.449642 -0.470342
v -0.332582 0.449642 -0.332582
v -0.470342 0.449642 -0.000000
v -0.332582 0.449642 0.332582
v 0.000000 0.449642 0.470342
v 0.332582 0.449642 0.332582
v 0.470342 0.449642 -0.000000
v 0.332582 0.449642 -0.332582
v 0.000000 0.907846 -0.215605
v -0.152456 0.907846 -0.152456
v -0.215605 0.907846 -0.000000
v -0.152456 0.907846 0.152456
v 0.000000 0.907846 0.215605
v 0.152456 0.907846 0.152456
v 0.215605 0.907846 -0.000000
v 0.152456 0.907846 -0.152456
v 0.000000 5.365028 -0.237674
v -0.168061 5.365028 -0.168061
v -0.237674 5.365028 -0.000000
v -0.168061 5.365028 0.168061
v 0.000000 5.365028 0.237674
v 0.168061 5.365028 0.168061
v 0.237674 5.365028 -0.000000
v 0.168061 5.365028 -0.168061
v 0.000000 8.348309 -3.847403
v -2.720524 8.348309 -2.720525
v -3.847404 8.348309 0.000000
v -2.720524 8.348309 2.720525
v 0.000000 8.348309 3.847404
v 2.720525 8.348309 2.720523
v 3.847403 8.348309 0.000000
v 2.720525 8.348309 -2.720525
v 0.000000 7.171280 -0.000000
v -1.605388 7.171279 -1.605388
v -2.270362 7.171279 0.000000
v -1.605388 7.171279 1.605388
v 0.000000 7.171279 2.270362
v 1.605389 7.171279 1.605388
v 2.270362 7.171279 -0.000000
v 1.605389 7.171279 -1.605388
v -0.146155 4.851892 -0.146155
v -0.206694 4.851892 -0.000000
v 0.206694 4.851892 -0.000000
v 0.146155 4.851892 -0.146155
v 0.000000 4.851892 0.206694
v 0.146155 4.851892 0.146155
v -0.146155 4.851892 0.146155
v 0.000000 4.851892 -0.206694
v 0.000000 8.346000 -3.707068
v -1.720181 7.165050 -1.720181
v 0.000000 7.165050 -2.432703
v -1.720181 7.165050 1.720181
v -2.432703 7.165050 0.000000
v 1.720181 7.165050 1.720180
v 0.000000 7.165050 2.432703
v 1.720181 7.165050 -1.720181
v 2.432703 7.165050 -0.000000
v 0.000000 7.171279 -2.270363
v 2.621293 8.346000 -2.621293
v 3.707068 8.346000 0.000000
v 2.621293 8.346000 2.621292
v 0.000000 8.346000 3.707068
v -2.621293 8.346000 2.621293
v -3.707068 8.346000 0.000000
v -2.621293 8.346000 -2.621293
v 0.000000 0.158011 -0.986358
v -0.697460 0.158011 -0.697460
v -0.986358 0.158011 0.000000
v -0.697460 0.158011 0.697460
v 0.000000 0.158011 0.986358
v 0.697461 0.158011 0.697460
v 0.986358 0.158011 -0.000000
v 0.697461 0.158011 -0.697460
v 0.000000 0.158011 -0.000000
v -2.431940 0.095922 0.000000
v -1.719641 0.095922 1.719641
v 0.000000 0.095922 -2.431940
v -1.719641 0.095922 -1.719641
v 1.719641 0.095922 -1.719641
v 1.719641 0.095922 1.719641
v 2.431940 0.095922 -0.000000
v 0.000000 0.095922 2.431940
vn -0.0000 1.0000 0.0000
vn -0.2540 -0.7479 0.6133
vn 0.2540 -0.7479 -0.6133
vn 0.2540 -0.7479 0.6133
vn -0.2540 -0.7479 -0.6133
vn -0.6133 -0.7479 -0.2540
vn 0.6133 -0.7479 0.2540
vn -0.6133 -0.7479 0.2540
vn 0.6133 -0.7479 -0.2540
vn -0.8806 0.3025 0.3648
vn -0.3648 0.3025 -0.8806
vn 0.3648 0.3025 -0.8806
vn 0.8806 0.3025 0.3648
vn -0.3648 0.3025 0.8806
vn -0.8806 0.3025 -0.3648
vn 0.8806 0.3025 -0.3648
vn 0.3648 0.3025 0.8806
vn 0.0879 0.9955 0.0364
vn -0.0364 0.9955 0.0879
vn -0.0879 0.9955 -0.0364
vn 0.0879 0.9955 -0.0364
vn 0.0364 0.9955 0.0879
vn -0.0879 0.9955 0.0364
vn -0.0364 0.9955 -0.0879
vn 0.0364 0.9955 -0.0879
vn -0.1456 0.9248 -0.3515
vn 0.1456 0.9248 -0.3515
vn 0.3515 0.9248 0.1456
vn -0.1456 0.9248 0.3515
vn -0.3515 0.9248 -0.1456
vn 0.3515 0.9248 -0.1456
vn 0.1456 0.9248 0.3515
vn -0.3515 0.9248 0.1456
vn 0.8218 0.4569 -0.3404
vn 0.3404 0.4569 0.8218
vn -0.8218 0.4569 0.3404
vn -0.3404 0.4569 -0.8218
vn 0.3404 0.4569 -0.8218
vn 0.8218 0.4569 0.3404
vn -0.3404 0.4569 0.8218
vn -0.8218 0.4569 -0.3404
vn -0.9224 -0.0557 -0.3821
vn 0.9224 -0.0557 -0.3821
vn 0.3821 -0.0557 0.9224
vn -0.9224 -0.0557 0.3821
vn -0.3821 -0.0557 -0.9224
vn 0.3821 -0.0557 -0.9224
vn 0.9224 -0.0557 0.3821
vn -0.3821 -0.0557 0.9224
vn 0.6201 -0.7413 -0.2568
vn 0.2568 -0.7413 0.6201
vn -0.6201 -0.7413 0.2568
vn 0.2568 -0.7413 -0.6201
vn 0.6201 -0.7413 0.2568
vn -0.2568 -0.7413 0.6201
vn -0.6201 -0.7413 -0.2568
vn -0.2568 -0.7413 -0.6201
vn -0.6123 0.7488 0.2536
vn 0.2536 0.7488 0.6123
vn 0.6123 0.7488 0.2536
vn -0.2536 0.7488 0.6123
vn -0.3827 0.0021 0.9239
vn 0.9239 0.0021 0.3827
vn 0.3827 0.0021 -0.9239
vn -0.3827 0.0021 -0.9239
vn -0.9239 0.0021 0.3827
vn 0.3827 0.0021 0.9239
vn 0.9239 0.0021 -0.3827
vn -0.9239 0.0021 -0.3827
vn 0.0068 0.9998 -0.0164
vn -0.0068 0.9998 -0.0164
vn 0.0068 0.9998 0.0164
vn -0.0164 0.9998 -0.0068
vn -0.0164 0.9998 0.0068
vn 0.0164 0.9998 -0.0068
vn -0.0068 0.9998 0.0164
vn 0.0164 0.9998 0.0068
vn -0.2536 0.7488 -0.6123
vn 0.2536 0.7488 -0.6123
vn 0.6123 0.7488 -0.2536
vn -0.6123 0.7488 -0.2536
vn 0.1008 -0.9940 0.0418
vn -0.1008 -0.9940 0.0418
vn -0.0418 -0.9940 -0.1008
vn 0.1008 -0.9940 -0.0418
vn 0.0418 -0.9940 0.1008
vn -0.0418 -0.9940 0.1008
vn -0.1008 -0.9940 -0.0418
vn 0.0418 -0.9940 -0.1008
vn 0.0000 -1.0000 0.0000
vn 0.3822 -0.0493 0.9228
vn 0.9228 -0.0493 -0.3822
vn -0.9228 -0.0493 -0.3822
vn -0.3822 -0.0493 0.9228
vn 0.9228 -0.0493 0.3822
vn 0.3822 -0.0493 -0.9228
vn -0.3822 -0.0493 -0.9228
vn -0.9228 -0.0493 0.3822
vn -0.9800 -0.1470 0.1339
vn -0.1916 0.4824 -0.8547
vn 0.9686 0.2322 -0.0888
vn 0.1801 -0.3972 0.8999
vn 0.1916 -0.4824 0.8547
vn 0.1861 -0.4403 0.8783
vn 0.9800 0.1470 -0.1339
vn 0.9755 0.1898 -0.1115
vn -0.1801 0.3972 -0.8999
vn -0.1861 0.4403 -0.8783
vn -0.9686 -0.2322 0.0888
vn -0.9755 -0.1898 0.1115
vn -0.5338 -0.7864 0.3109
vn 0.1780 -0.9394 0.2929
vn -0.8594 -0.4930 0.1357
vn -0.8095 -0.4832 -0.3335
vn -0.4531 -0.7705 -0.4483
vn 0.4991 -0.8087 0.3112
vn -0.2558 -0.2421 0.9359
vn -0.8967 0.3746 0.2358
vn -0.5378 0.1892 -0.8216
vn 0.3249 -0.5421 -0.7749
vn 0.4848 -0.6097 0.6270
vn -0.3983 0.1023 0.9115
vn -0.8205 0.5666 -0.0754
vn -0.1983 0.1416 -0.9699
vn 0.6085 -0.5855 -0.5357
vn 0.6364 0.1378 0.7589
vn -0.0866 0.7589 0.6454
vn -0.1780 0.9394 -0.2929
vn 0.4885 0.4298 -0.7593
vn 0.9918 -0.0656 -0.1092
vn 0.6156 0.7734 0.1513
vn 0.9314 0.1989 -0.3048
vn 0.7811 0.1662 -0.6019
vn 0.6893 0.7230 0.0453
vn 0.3718 0.7033 -0.6060
vn 0.0477 0.7853 -0.6173
vn 0.5847 0.8074 0.0790
vn -0.0598 0.9981 0.0145
vn -0.2397 0.9273 0.2875
vn 0.6803 0.7213 0.1304
vn 0.2330 0.6760 0.6991
vn 0.3161 0.3960 0.8621
vn 0.6302 0.7763 0.0135
vn 0.8456 0.1821 0.5017
vn 0.9470 -0.0744 0.3125
vn 0.8967 -0.3746 -0.2358
vn 0.7659 -0.3900 -0.5111
vn 0.6993 -0.1575 -0.6973
vn 0.2558 0.2421 -0.9359
vn -0.0356 0.3324 -0.9425
vn -0.1571 0.5751 -0.8029
vn -0.4991 0.8087 -0.3112
vn -0.6538 0.7547 -0.0538
vn -0.5569 0.7974 0.2325
vn -0.3249 0.5421 0.7749
vn -0.2344 0.2934 0.9268
vn 0.0523 0.2022 0.9779
vn 0.5378 -0.1892 0.8216
vn 0.6431 -0.4141 0.6442
vn 0.8287 -0.3880 0.4033
vn 0.3983 -0.1023 -0.9115
vn 0.2344 -0.2934 -0.9268
vn -0.0523 -0.2022 -0.9779
vn -0.4848 0.6097 -0.6270
vn -0.6431 0.4141 -0.6442
vn -0.8287 0.3880 -0.4033
vn -0.6085 0.5855 0.5357
vn -0.7659 0.3900 0.5111
vn -0.6993 0.1575 0.6973
vn 0.1983 -0.1416 0.9699
vn 0.0356 -0.3324 0.9425
vn 0.1571 -0.5750 0.8029
vn 0.8205 -0.5666 0.0754
vn 0.6538 -0.7547 0.0538
vn 0.5569 -0.7974 -0.2324
vn 0.0866 -0.7589 -0.6454
vn -0.2330 -0.6760 -0.6991
vn -0.3161 -0.3960 -0.8621
vn -0.6364 -0.1378 -0.7589
vn -0.8456 -0.1821 -0.5017
vn -0.9470 0.0744 -0.3125
vn -0.9918 0.0656 0.1092
vn -0.9314 -0.1989 0.3048
vn -0.7811 -0.1662 0.6019
vn 0.2397 -0.9273 -0.2875
vn 0.0598 -0.9981 -0.0145
vn -0.2828 -0.9579 -0.0500
vn -0.4885 -0.4298 0.7593
vn -0.3718 -0.7032 0.6060
vn -0.0477 -0.7853 0.6173
vn 0.1342 -0.2196 0.9663
vn 0.3353 -0.1802 -0.9247
vn -0.6767 0.5111 0.5300
vn 0.7596 -0.6469 0.0673
vn -0.5524 0.5355 -0.6388
vn 0.8594 0.4930 -0.1357
vn 0.5338 0.7864 -0.3109
vn 0.2828 0.9579 0.0500
vn 0.4531 0.7705 0.4483
vn 0.8095 0.4832 0.3335
usemtl FFEB3B
s off
f 144//1 120//1 119//1
f 121//1 122//1 119//1
f 125//1 126//1 119//1
f 123//1 124//1 119//1
f 107//2 141//2 138//2 106//2
f 103//3 137//3 142//3 110//3
f 108//4 140//4 141//4 107//4
f 104//5 136//5 137//5 103//5
f 105//6 139//6 136//6 104//6
f 109//7 143//7 140//7 108//7
f 106//8 138//8 139//8 105//8
f 110//9 142//9 143//9 109//9
f 122//1 123//1 119//1
f 124//1 125//1 119//1
f 126//1 144//1 119//1
f 120//1 121//1 119//1
usemtl FFFFFF
f 162//10 74//10 73//10 161//10
f 164//11 72//11 71//11 163//11
f 163//12 71//12 78//12 165//12
f 167//13 77//13 76//13 166//13
f 168//14 75//14 74//14 162//14
f 161//15 73//15 72//15 164//15
f 165//16 78//16 77//16 167//16
f 166//17 76//17 75//17 168//17
f 77//18 85//18 84//18 76//18
f 75//19 83//19 82//19 74//19
f 73//20 81//20 80//20 72//20
f 78//21 86//21 85//21 77//21
f 76//22 84//22 83//22 75//22
f 74//23 82//23 81//23 73//23
f 72//24 80//24 79//24 71//24
f 71//25 79//25 86//25 78//25
f 80//26 88//26 87//26 79//26
f 79//27 87//27 94//27 86//27
f 85//28 93//28 92//28 84//28
f 83//29 91//29 90//29 82//29
f 81//30 89//30 88//30 80//30
f 86//31 94//31 93//31 85//31
f 84//32 92//32 91//32 83//32
f 82//33 90//33 89//33 81//33
f 94//34 102//34 101//34 93//34
f 92//35 100//35 99//35 91//35
f 90//36 98//36 97//36 89//36
f 88//37 96//37 95//37 87//37
f 87//38 95//38 102//38 94//38
f 93//39 101//39 100//39 92//39
f 91//40 99//40 98//40 90//40
f 89//41 97//41 96//41 88//41
f 128//42 105//42 104//42 127//42
f 130//43 110//43 109//43 129//43
f 132//44 108//44 107//44 131//44
f 133//45 106//45 105//45 128//45
f 127//46 104//46 103//46 134//46
f 134//47 103//47 110//47 130//47
f 129//48 109//48 108//48 132//48
f 131//49 107//49 106//49 133//49
f 142//50 118//50 117//50 143//50
f 140//51 116//51 115//51 141//51
f 138//52 114//52 113//52 139//52
f 137//53 111//53 118//53 142//53
f 143//54 117//54 116//54 140//54
f 141//55 115//55 114//55 138//55
f 139//56 113//56 112//56 136//56
f 136//57 112//57 111//57 137//57
f 146//58 145//58 126//58 125//58
f 135//59 151//59 120//59 144//59
f 151//60 150//60 121//60 120//60
f 145//61 135//61 144//61 126//61
f 99//62 131//62 133//62 98//62
f 101//63 129//63 132//63 100//63
f 95//64 134//64 130//64 102//64
f 96//65 127//65 134//65 95//65
f 98//66 133//66 128//66 97//66
f 100//67 132//67 131//67 99//67
f 102//68 130//68 129//68 101//68
f 97//69 128//69 127//69 96//69
f 114//70 115//70 148//70 149//70
f 115//71 116//71 147//71 148//71
f 111//72 112//72 151//72 135//72
f 116//73 117//73 146//73 147//73
f 117//74 118//74 145//74 146//74
f 113//75 114//75 149//75 150//75
f 118//76 111//76 135//76 145//76
f 112//77 113//77 150//77 151//77
f 148//78 147//78 124//78 123//78
f 149//79 148//79 123//79 122//79
f 150//80 149//80 122//80 121//80
f 147//81 146//81 125//81 124//81
f 65//82 64//82 153//82 154//82
f 70//83 69//83 158//83 159//83
f 68//84 67//84 156//84 157//84
f 66//85 65//85 154//85 155//85
f 64//86 63//86 152//86 153//86
f 63//87 70//87 159//87 152//87
f 69//88 68//88 157//88 158//88
f 67//89 66//89 155//89 156//89
f 159//90 158//90 160//90
f 157//90 156//90 160//90
f 155//90 154//90 160//90
f 153//90 152//90 160//90
f 152//90 159//90 160//90
f 158//90 157//90 160//90
f 156//90 155//90 160//90
f 154//90 153//90 160//90
f 68//91 166//91 168//91 67//91
f 70//92 165//92 167//92 69//92
f 65//93 161//93 164//93 64//93
f 67//94 168//94 162//94 66//94
f 69//95 167//95 166//95 68//95
f 63//96 163//96 165//96 70//96
f 64//97 164//97 163//97 63//97
f 66//98 162//98 161//98 65//98
usemtl DD9944
f 4//99 2//99 5//99
f 5//100 2//100 7//100
f 7//101 2//101 9//101
f 9//102 2//102 4//102
f 1//103 10//103 3//103
f 10//104 9//104 4//104 3//104
f 1//105 8//105 10//105
f 8//106 7//106 9//106 10//106
f 1//107 6//107 8//107
f 6//108 5//108 7//108 8//108
f 1//109 3//109 6//109
f 3//110 4//110 5//110 6//110
usemtl 4CAF50
f 11//111 24//111 23//111
f 12//112 24//112 26//112
f 11//113 23//113 28//113
f 11//114 28//114 30//114
f 11//115 30//115 27//115
f 12//116 26//116 33//116
f 13//117 25//117 35//117
f 14//118 29//118 37//118
f 15//119 31//119 39//119
f 16//120 32//120 41//120
f 12//121 33//121 36//121
f 13//122 35//122 38//122
f 14//123 37//123 40//123
f 15//124 39//124 42//124
f 16//125 41//125 34//125
f 17//126 43//126 48//126
f 18//127 44//127 50//127
f 19//128 45//128 51//128
f 20//129 46//129 52//129
f 21//130 47//130 49//130
f 50//131 48//131 54//131 55//131
f 49//132 47//132 52//132
f 47//133 20//133 52//133
f 49//134 52//134 57//134 53//134
f 52//135 46//135 51//135
f 46//136 19//136 51//136
f 51//137 50//137 55//137 56//137
f 51//138 45//138 50//138
f 45//139 18//139 50//139
f 48//140 49//140 53//140 54//140
f 50//141 44//141 48//141
f 44//142 17//142 48//142
f 52//143 51//143 56//143 57//143
f 48//144 43//144 49//144
f 43//145 21//145 49//145
f 34//146 47//146 21//146
f 34//147 41//147 47//147
f 41//148 20//148 47//148
f 42//149 46//149 20//149
f 42//150 39//150 46//150
f 39//151 19//151 46//151
f 40//152 45//152 19//152
f 40//153 37//153 45//153
f 37//154 18//154 45//154
f 38//155 44//155 18//155
f 38//156 35//156 44//156
f 35//157 17//157 44//157
f 36//158 43//158 17//158
f 36//159 33//159 43//159
f 33//160 21//160 43//160
f 41//161 42//161 20//161
f 41//162 32//162 42//162
f 32//163 15//163 42//163
f 39//164 40//164 19//164
f 39//165 31//165 40//165
f 31//166 14//166 40//166
f 37//167 38//167 18//167
f 37//168 29//168 38//168
f 29//169 13//169 38//169
f 35//170 36//170 17//170
f 35//171 25//171 36//171
f 25//172 12//172 36//172
f 33//173 34//173 21//173
f 33//174 26//174 34//174
f 26//175 16//175 34//175
f 27//176 32//176 16//176
f 27//177 30//177 32//177
f 30//178 15//178 32//178
f 30//179 31//179 15//179
f 30//180 28//180 31//180
f 28//181 14//181 31//181
f 28//182 29//182 14//182
f 28//183 23//183 29//183
f 23//184 13//184 29//184
f 26//185 27//185 16//185
f 26//186 24//186 27//186
f 24//187 11//187 27//187
f 23//188 25//188 13//188
f 23//189 24//189 25//189
f 24//190 12//190 25//190
f 57//191 56//191 61//191 62//191
f 55//192 54//192 59//192 60//192
f 53//193 57//193 62//193 22//193
f 56//194 55//194 60//194 61//194
f 54//195 53//195 22//195 59//195
usemtl F44336
f 22//196 62//196 58//196
f 62//197 61//197 58//197
f 61//198 60//198 58//198
f 60//199 59//199 58//199
f 59//200 22//200 58//200
